<svg aria-hidden="true" xmlns="http://www.w3.org/2000/svg"><defs><symbol id="icon-icon-arrow" viewBox="0 0 22 32"><path stroke-linejoin="round" stroke-linecap="round" stroke-width="6.4" d="m4.545 3.2 13.7 12.8-13.7 12.8"/></symbol><symbol id="icon-icon-burger-menu" viewBox="0 0 46 32"><path stroke-width="2.286" d="M0 2.286h45.714M0 16h45.714M0 29.714h45.714"/></symbol><symbol id="icon-icon-close" viewBox="0 0 32 32"><path stroke-width="2" d="m2.518 2 26.963 28M2 29.481 30 2.518"/></symbol><symbol id="icon-icon-ellipse-grey" viewBox="0 0 35 32"><path d="M33.053 16c0 8.837-7.163 16-16 16s-16-7.163-16-16 7.163-16 16-16 16 7.163 16 16z"/></symbol><symbol id="icon-icon-ellipse-white" viewBox="0 0 32 32"><path d="M32 16c0 8.837-7.163 16-16 16S0 24.837 0 16 7.163 0 16 0s16 7.163 16 16z"/></symbol><symbol id="icon-icon-facebook" viewBox="0 0 16 32"><path d="M14.266 15.97H10.09v15.39H3.763V15.97H.754v-5.409h3.009v-3.5c0-2.503 1.182-6.422 6.384-6.422l4.687.02v5.25h-3.401c-.558 0-1.342.28-1.342 1.474v3.183h4.729l-.553 5.403z"/></symbol><symbol id="icon-icon-github" viewBox="0 0 32 32"><path d="M16 .941C7.729.941.941 7.729.941 16c0 7.058 4.953 13.47 11.529 15.059v-4.982c-.652.143-1.251.147-1.915-.049-.89-.263-1.613-.855-2.15-1.759-.342-.577-.949-1.203-1.581-1.157l-.155-1.758c1.368-.117 2.551.833 3.254 2.014.312.525.671.832 1.132.968.446.131.924.068 1.481-.129.14-1.116.651-1.534 1.037-2.122v-.001c-3.922-.585-5.486-2.666-6.106-4.308-.822-2.181-.381-4.905 1.073-6.627.028-.034.079-.121.059-.183-.667-2.014.146-3.679.176-3.856.769.228.894-.229 3.342 1.258l.423.254c.177.105.121.045.298.032a12.77 12.77 0 0 1 3.16-.445 12.84 12.84 0 0 1 3.204.456l.137.014c-.012-.002.037-.009.12-.058 3.057-1.852 2.947-1.247 3.767-1.513.03.177.831 1.87.172 3.858-.089.274 2.65 2.782 1.132 6.809-.62 1.643-2.183 3.724-6.106 4.309v.001c.503.766 1.107 1.174 1.104 2.755v6.219C26.105 29.47 31.057 23.058 31.057 16 31.057 7.729 24.27.941 15.998.941z"/></symbol><symbol id="icon-icon-group1" viewBox="0 0 21 32"><path d="M2.333.144c-.35.187-.553.563-.553 1.006.006.813.209 1.556.614 2.2l.178.294-.338.381c-.381.425-.473.581-.645 1.087-.141.412-.153 1.162-.031 1.581.43 1.438 1.854 2.269 3.248 1.9.473-.125.761-.281 1.203-.656l.375-.313.35.175c.196.1.528.244.743.325l.381.138v.7c0 1.106.227 1.762.81 2.356s1.498.9 2.29.762c.565-.1 1.117-.381 1.492-.762.583-.594.81-1.25.81-2.356v-.7l.387-.138c.209-.081.54-.225.737-.325l.35-.175.375.313c.442.375.731.531 1.203.656 1.394.369 2.818-.463 3.248-1.9.123-.419.111-1.169-.031-1.581-.172-.506-.264-.662-.645-1.087l-.338-.381.178-.294c.405-.644.608-1.387.614-2.2 0-.444-.203-.819-.553-1.006L18.521 0H2.595l-.264.144zM17.068 2.1c0 .019-.178.313-.399.663-.651 1.031-.626 1.256.239 2.169.313.331.602.662.645.737.233.463-.233 1.037-.749.919-.123-.025-.393-.244-.786-.631-.786-.775-1.056-.862-1.658-.519-.694.4-1.578.806-2.008.925-.608.175-.817.306-.976.638-.129.256-.141.362-.141 1.362 0 1.231-.049 1.431-.399 1.6-.252.125-.301.125-.553 0-.35-.169-.399-.369-.399-1.6 0-1-.012-1.106-.135-1.362-.166-.325-.375-.462-.982-.638-.528-.15-1.308-.494-1.738-.775-.405-.263-.761-.362-1.044-.313-.184.037-.368.181-.86.662-.405.394-.694.625-.817.65-.51.119-.976-.463-.743-.919.043-.075.332-.406.645-.737.866-.912.89-1.138.239-2.169-.221-.35-.399-.644-.399-.663 0-.025 2.929-.038 6.508-.038s6.508.013 6.508.038zM.485 13.206c-.313.212-.485.512-.485.844 0 .225 3.119 16.925 3.229 17.275.055.194.282.425.522.55.227.125.387.125 6.809.125s6.582 0 6.809-.125c.239-.125.467-.356.522-.55.11-.35 3.229-17.05 3.229-17.275 0-.331-.172-.631-.485-.844l-.209-.144H.694l-.209.144zm18.21 2.275c-.061.5-.418 1.587-.682 2.081-1.283 2.375-3.714 3.819-6.729 3.988-2.278.131-4.206-.331-5.82-1.394a7 7 0 0 1-2.265-2.438c-.307-.544-.712-1.712-.774-2.237l-.043-.356h16.356l-.043.356zM4.39 21.919c2.634 1.775 6.569 2.244 9.885 1.169a10.688 10.688 0 0 0 3.18-1.688c.276-.219.295-.219.264-.081-.018.081-.381 1.994-.804 4.244s-.78 4.156-.798 4.231l-.031.144H5.035l-.031-.144c-.018-.075-.375-1.981-.798-4.231s-.786-4.163-.804-4.244c-.031-.137-.012-.137.264.081.16.125.491.356.724.519z"/></symbol><symbol id="icon-icon-group2" viewBox="0 0 32 32"><path d="M29.528 21.41c-1.292-.458-2.382-.344-3.242.018.145-.877.47-1.832 1.17-2.481a1.065 1.065 0 0 0-1.449-1.561c-1.229 1.14-1.706 2.748-1.874 4.081a4.036 4.036 0 0 0-1.058-.311l1.89-9.83a1.065 1.065 0 0 0-1.046-1.266h-.204c.094-.5.141-.997.137-1.47-.016-1.994-.903-3.495-2.374-4.017-1.41-.5-2.59-.35-3.507.066.145-.976.494-2.063 1.282-2.794A1.065 1.065 0 0 0 17.804.284c-1.32 1.225-1.815 2.965-1.982 4.386-.735-.348-1.644-.527-2.708-.33-1.094-1.571-2.613-2.296-4.089-1.942-1.451.349-2.358 1.115-2.901 1.962-.41-.899-.712-2.001-.452-3.036A1.065 1.065 0 0 0 3.607.805c-.439 1.746.095 3.476.729 4.758-1.016.137-2.117.65-3.049 1.866-.578.755-.773 1.698-.596 2.7a1.065 1.065 0 0 0-.674 1.197l3.809 19.81c.096.501.535.864 1.046.864h15.237c.511 0 .949-.362 1.046-.864l.037-.195c.287.198.596.363.927.487 1.266.471 2.447.278 3.044.118.316.085.795.179 1.364.179.506 0 1.084-.075 1.68-.297 2.36-.879 3.615-3.839 3.596-6.178-.015-1.904-.866-3.339-2.276-3.839zm-6.951-9.22c-.49 4.705-4.452 7.909-9.971 7.909s-9.481-3.204-9.971-7.91h19.942zm-6.643-4.675a1.047 1.047 0 0 0 1.86 0c.029-.048.29-.466.769-.777.629-.408 1.35-.46 2.203-.157.851.302.952 1.518.956 2.027.004.464-.064.962-.191 1.453h-7.126c.236-1.189.094-2.492-.289-3.669a2.12 2.12 0 0 1 1.047.346c.479.311.74.729.769.777zM2.98 8.724c.55-.719 1.182-1.068 1.932-1.069h.002c.57 0 1.016.208 1.066.232a1.05 1.05 0 0 0 1.079-.037c.331-.211.51-.591.481-.983-.006-.077-.115-1.893 1.983-2.397.876-.211 1.625.754 1.906 1.178.807 1.22 1.221 3.108.777 4.413H2.857c-.141-.443-.179-.943.122-1.336zM5.754 29.87 3.643 18.892c.138.133.281.263.427.389 2.208 1.901 5.239 2.948 8.535 2.948s6.328-1.047 8.535-2.948c.052-.044.102-.09.152-.135l-.431 2.243c-.02.007-.041.013-.061.021-1.41.5-2.261 1.935-2.276 3.839-.009 1.164.297 2.483.898 3.622l-.192.999H5.753zm21.711-.438c-.943.351-1.881.017-1.916.005a1.04 1.04 0 0 0-.768 0c-.009.004-.96.352-1.917-.004-1.338-.498-2.223-2.556-2.21-4.165.004-.466.095-1.578.858-1.849.349-.124.661-.175.939-.175 1.107 0 1.657.812 1.782 1.024a1.047 1.047 0 0 0 1.862 0c.156-.266.977-1.468 2.721-.849.763.271.854 1.383.858 1.849.013 1.609-.872 3.667-2.21 4.165z"/></symbol><symbol id="icon-icon-group4" viewBox="0 0 28 32"><path stroke-width=".308" d="M.667 11.16c.587 2.696 1.894 5.088 3.953 7.163 1.839 1.86 3.455 2.99 6.008 4.163h.001l1.238.581v8.47h1.73v-7.901l.159.047c.229.066.567.066.796 0h.001l.159-.046v7.901h1.73v-8.481l1.179-.536c2.469-1.138 4.263-2.372 6.008-4.141 2.786-2.829 4.217-6.052 4.217-9.561.012-3.851-2.01-7-5.213-8.076-.689-.24-1.054-.274-2.316-.262M.667 11.16l13.614-8.305-.098-.072M.667 11.16C.533 10.545.465 9.706.462 8.884c-.003-.82.059-1.636.194-2.201.723-3.189 2.943-5.549 5.82-6.152M.667 11.16 6.475.531M20.317.482zm0 0c-.658.006-1.07.02-1.444.074-.376.054-.709.146-1.208.303h-.002c-1.188.385-2.356.994-3.133 1.632l-.001.001-.346.291m0 0-.543-.401C11.968 1.152 10.255.553 8.244.471h-.001A15.571 15.571 0 0 0 7.207.47c-.312.01-.586.03-.733.063m7.709 2.25L6.475.532m6.684 3.701c-.238-.226-.669-.537-1.14-.832a9.827 9.827 0 0 0-1.336-.718 10.047 10.047 0 0 0-1.5-.419c-1.975-.362-3.49.022-4.825 1.21l-.001.001a6.666 6.666 0 0 0-.795.844 3.015 3.015 0 0 0-.232.33l.243.044c.238.042.56.096.909.154 1.231.192 2.186.449 3.209.942 1.02.492 2.103 1.215 3.592 2.33l.001.001c.605.464 1.625 1.059 2.651 1.541l.003.001c.458.226.898.452 1.238.636.17.092.316.175.427.242.056.034.104.064.142.091a.608.608 0 0 1 .098.08c.128.137.234.274.318.447s.141.372.182.631c.081.512.098 1.281.098 2.571 0 1.17.003 1.784.034 2.135.015.175.036.271.061.332a.362.362 0 0 0 .096.135c.246.24.583.23.762.031l.004-.004c.05-.052.097-.135.125-.456.027-.32.033-.837.033-1.723 0-1.173.029-1.886.159-2.378a1.75 1.75 0 0 1 .292-.622 2.34 2.34 0 0 1 .488-.459l.002-.001a1.77 1.77 0 0 1 .647-.308c.27-.071.643-.124 1.24-.193h.001c1.864-.207 2.941-.447 4.23-.937.405-.154.704-.268.927-.371.225-.103.357-.188.439-.273a.501.501 0 0 0 .134-.302c.02-.142.014-.324.002-.588v-.003a8.836 8.836 0 0 0-.256-1.707v-.001c-.709-2.681-2.921-4.56-5.316-4.56-1.787 0-3.967.84-5.314 2.061l-.001.001c-.22.197-.405.352-.572.459s-.327.175-.495.182a.843.843 0 0 1-.486-.149 3.572 3.572 0 0 1-.517-.425zm-9.972.388-.003-.001.003.001zm5.826 3.976-.001-.001C7.78 7.682 6.435 7.012 5.25 6.717a14.269 14.269 0 0 0-1.803-.295 6.97 6.97 0 0 0-.715-.04 1.234 1.234 0 0 0-.224.019 2.17 2.17 0 0 0-.148.496 8.7 8.7 0 0 0-.127.893c-.063.665-.077 1.407-.019 1.947.316 2.926 1.588 5.398 4.032 7.743 1.927 1.865 4.325 3.319 7.043 4.235l.002.001.862.305.874-.306c2.542-.871 5.036-2.326 6.844-4.018 1.246-1.168 1.889-1.964 2.711-3.37l.001-.001c.254-.428.603-1.203.874-1.892.135-.344.248-.661.32-.899a2.99 2.99 0 0 0 .058-.218 13.238 13.238 0 0 0-.912.3h-.001c-1.188.432-2.967.816-4.402.944h-.001l-.063.005c-.323.027-.548.045-.715.089-.166.044-.252.106-.311.216-.067.126-.107.328-.127.676-.018.322-.018.746-.018 1.313v.121c0 1.098-.014 1.745-.096 2.184a1.768 1.768 0 0 1-.189.553 1.974 1.974 0 0 1-.328.417c-.235.247-.47.425-.733.54s-.547.164-.871.164c-.5 0-.927-.099-1.284-.317s-.63-.547-.835-.983c-.105-.223-.164-.436-.198-.864-.033-.423-.042-1.067-.042-2.156 0-.906-.009-1.537-.031-1.957a4.775 4.775 0 0 0-.042-.47.824.824 0 0 0-.035-.144c-.001-.001-.007-.008-.023-.02s-.039-.029-.068-.048a3.193 3.193 0 0 0-.225-.13 8.752 8.752 0 0 0-.654-.31c-1.006-.42-2.333-1.164-3.138-1.761-.296-.219-.959-.703-1.48-1.084l-.001-.001zM2.49 6.407c-.002.001-.002.001 0 0zm.036-.038-.001.002.001-.002z"/></symbol><symbol id="icon-icon-group3" viewBox="0 0 32 32"><path d="M13.653 29.333v-7.467c0-.213-.053-.32-.213-.427a41.883 41.883 0 0 1-4.587-3.52c-1.387-1.28-2.667-2.72-3.573-4.427-1.173-2.293-1.387-4.64-.373-7.04.8-1.867 2.187-3.2 4.267-3.627 2.027-.48 3.84.053 5.387 1.493.32.267.587.587.853.907.373.427.853.427 1.227 0 .533-.693 1.173-1.333 1.973-1.76 1.227-.693 2.507-.96 3.84-.693 2.507.427 4.107 1.973 4.907 4.32.747 2.24.48 4.373-.64 6.453-.907 1.707-2.133 3.093-3.573 4.373-1.44 1.333-2.987 2.453-4.587 3.52-.16.107-.213.213-.213.427v7.467h-4.693zM12.16 11.947c-.053 0-.053 0 0 0-.053.267-.053.533-.053.747 0 .533.32.907.8.907.427 0 .747-.373.747-.853v-1.493c.053-1.173.853-2.133 1.92-2.293 1.44-.213 2.72.8 2.773 2.293v1.547c0 .373.16.64.48.747.533.213 1.013-.16 1.067-.747v-1.547c.053-1.013.48-1.707 1.387-2.133.907-.373 1.707-.267 2.453.373.533.427.747 1.013.8 1.707.053.48.32.8.747.8.213 0 .373-.053.427-.267.107-.427.267-.907.32-1.333.213-1.867-.16-3.52-1.493-4.907a4.203 4.203 0 0 0-5.333-.587c-.48.32-.907.693-1.227 1.173-1.013 1.387-2.987 1.387-3.947 0-.053-.107-.107-.16-.213-.267-.533-.587-1.12-1.067-1.867-1.333-2.08-.693-4.32.16-5.333 2.133-.853 1.653-.907 3.307-.373 5.067.107.32.267.373.587.32.373-.107.533-.373.587-.853.107-1.173.96-2.08 2.133-2.24 1.12-.107 2.187.587 2.453 1.707.107.48.107.907.16 1.333zM7.2 13.6c.587.907 1.28 1.707 2.08 2.507 1.6 1.6 3.467 2.987 5.333 4.213.907.587 1.867.587 2.773 0l1.12-.8c1.813-1.28 3.52-2.613 5.013-4.32.48-.533.907-1.12 1.333-1.653-.053-.053-.053-.053-.107-.053-1.12-.373-1.707-1.12-1.76-2.293 0-.32-.213-.533-.48-.693-.533-.213-1.013.16-1.067.747v1.6c-.053 1.28-1.067 2.293-2.347 2.293s-2.293-1.013-2.347-2.293v-1.547c0-.16-.053-.373-.107-.533-.16-.267-.533-.427-.853-.32s-.587.373-.587.747v1.547c0 1.173-.853 2.133-1.92 2.293-1.493.267-2.72-.8-2.773-2.293v-1.547c0-.32-.16-.587-.427-.693s-.533-.107-.8.107c-.213.16-.267.427-.267.693 0 .64-.267 1.227-.8 1.653-.32.32-.693.48-1.013.64zm8.053 8.747v5.387h1.493v-5.387h-1.493z"/></symbol><symbol id="icon-icon-home" viewBox="0 0 35 32"><path d="M32.64 15.401a1.541 1.541 0 0 0-.129-2.225L17.739.426c-.671-.578-1.745-.566-2.402.027L.515 13.856a1.532 1.532 0 0 0-.071 2.222l.372.382c.617.633 1.613.708 2.224.168l1.108-.979v14.326c0 .879.722 1.591 1.612 1.591h5.778c.89 0 1.612-.712 1.612-1.591V19.952h7.37v10.023c-.013.878.624 1.59 1.515 1.59h6.123c.89 0 1.613-.711 1.613-1.59V15.851l.683.592c.377.328 1.168.065 1.767-.586l.42-.455z"/></symbol><symbol id="icon-icon-right" viewBox="0 0 26 32"><path stroke-linejoin="round" stroke-linecap="round" stroke-width="6.4" d="M5.172 3.2 19.341 16 5.172 28.8"/></symbol><symbol id="icon-icon-telegram" viewBox="0 0 40 32"><path d="m16.205 20.751-.635 8.339c.909 0 1.302-.364 1.774-.802l4.261-3.801 8.829 6.035c1.619.842 2.76.399 3.197-1.39l5.797-25.346c.514-2.234-.866-3.108-2.443-2.56L2.92 13.398c-2.325.842-2.29 2.052-.395 2.6l8.709 2.528L31.463 6.712c.952-.588 1.818-.263 1.106.326L16.205 20.751z"/></symbol><symbol id="icon-icon-testimonials" viewBox="0 0 43 32"><path d="M32.014 0c1.929 0 3.75.52 5.464 1.561s3.107 2.537 4.179 4.488C42.686 8 43.2 10.298 43.2 12.943s-.643 5.225-1.929 7.74c-.429.911-1.2 2.081-2.314 3.512a63.368 63.368 0 0 1-3.214 3.707L31.693 32 28.8 27.187a22.03 22.03 0 0 0 5.336-4.683c1.543-1.821 2.314-3.491 2.314-5.008 0-.78-.171-1.409-.514-1.886a8.359 8.359 0 0 1-5.014 1.626c-1.329 0-2.593-.412-3.793-1.236a8.555 8.555 0 0 1-2.957-3.122c-.771-1.258-1.157-2.558-1.157-3.902 0-1.518.45-2.97 1.35-4.358a10.222 10.222 0 0 1 3.407-3.382C29.143.412 30.558 0 32.015 0zM8.936 0c1.929 0 3.75.52 5.464 1.561s3.107 2.537 4.179 4.488c1.029 1.951 1.543 4.249 1.543 6.894 0 1.864-.236 3.534-.707 5.008-.471 1.518-1.286 3.1-2.443 4.748-1.114 1.561-2.164 2.862-3.15 3.902-.986 1.084-2.7 2.884-5.143 5.398l-2.893-4.813a22.03 22.03 0 0 0 5.336-4.683c1.543-1.821 2.314-3.491 2.314-5.008 0-.78-.171-1.409-.514-1.886a8.359 8.359 0 0 1-5.014 1.626c-1.329 0-2.593-.412-3.793-1.236a8.555 8.555 0 0 1-2.957-3.122C.387 11.619.001 10.319.001 8.975c0-1.518.429-2.97 1.286-4.358S3.28 2.102 4.694 1.235C6.065.411 7.48-.001 8.937-.001z"/></symbol><symbol id="icon-logo" viewBox="0 0 127 32"><path d="M31.36 16.32C31.36 24.98 24.483 32 16 32S.64 24.98.64 16.32 7.517.64 16 .64s15.36 7.02 15.36 15.68z"/><path d="M11.849.562C4.443 2.805 0 8.635 0 16.004c0 6.023 3.091 11.277 8.179 13.904 2.64 1.346 3.027.384.58-1.474-1.739-1.41-2.061-2.05-2.061-4.421 0-1.666-.386-3.011-.966-3.524-1.159-.961-1.288-3.46-.129-4.357.451-.384.902-1.666.966-2.819.322-4.229 4.894-8.201 9.467-8.201s9.145 3.973 9.466 8.201c.064 1.153.515 2.435.966 2.819 1.159.897 1.03 3.396-.129 4.357-.58.513-.966 1.858-.966 3.524 0 2.371-.322 3.011-2.061 4.421-2.705 2.114-1.932 2.883 1.095 1.025 4.25-2.627 7.406-8.33 7.406-13.391C31.813 5.944 21.252-2.257 11.85.562z"/><path d="M12.686 7.994c-1.159.513-2.125 1.153-2.125 1.538 0 .705 3.477 1.986 5.474 1.986s5.474-1.281 5.474-1.986c0-.769-3.993-2.499-5.603-2.499-.644.064-2.125.449-3.22.961zm33.165 3.332c-.966.256-1.159 1.089-1.159 5.703v5.382h4.572l-.193-5.574c-.193-5.831-.451-6.279-3.22-5.51zm7.535.32c-2.125 1.153-2.898 2.563-2.898 5.318 0 3.78 2.061 5.574 5.86 5.318 2.576-.192 2.833-.384 3.027-1.986s.064-1.73-1.932-1.602c-2.061.192-2.125.064-2.125-2.05s.129-2.243 1.996-2.05c1.546.128 2.125-.128 2.383-1.089.129-.641 0-1.538-.386-1.922-.902-.897-4.25-.897-5.925.064zm7.663.064c-.193.513-.258 3.011-.129 5.638l.193 4.741h4.186c3.864 0 4.186-.128 4.379-1.474.193-1.217-.064-1.41-2.06-1.41-1.288 0-2.319-.32-2.319-.641 0-.384.902-.641 1.932-.641 1.481 0 1.932-.256 1.932-1.281s-.451-1.281-1.932-1.281c-1.03 0-1.932-.32-1.932-.641 0-.384.837-.641 1.868-.641 1.804 0 3.027-1.41 2.254-2.627-.58-.961-7.985-.705-8.372.256zm12.944-.192c-2.125.833-2.962 2.307-3.027 4.998-.065 4.613 1.803 6.215 6.633 5.767 1.868-.128 2.189-.448 2.189-1.794 0-1.41-.257-1.602-2.061-1.41-1.546.128-2.125-.064-2.447-1.089-.58-1.986.644-3.588 2.705-3.588 1.224 0 1.868-.384 1.996-1.217.451-2.05-2.833-3.011-5.989-1.666zm7.921-.256c-.323.256-.515 2.883-.515 5.831v5.382l2.06-.192c1.61-.128 2.19-.577 2.512-1.794l.386-1.602.515 1.73c.387 1.474.837 1.794 2.512 1.794 2.769 0 3.091-.448 1.932-2.691-.708-1.41-.837-2.114-.322-2.627.837-.833.902-3.652.129-4.87-.644-1.025-8.371-1.858-9.208-.961zm5.28 3.46c0 .705-.257 1.281-.644 1.281-.322 0-.644-.577-.644-1.281s.322-1.281.644-1.281c.387 0 .644.577.644 1.281zm6.247-3.396c-.258.192-.451 2.819-.451 5.767v5.318h4.186c4.057 0 4.186-.064 4.186-1.602 0-1.346-.322-1.602-1.932-1.602-1.03 0-1.932-.32-1.932-.641 0-.384.708-.641 1.61-.641 1.159 0 1.61-.32 1.61-1.281s-.451-1.281-1.61-1.281c-.902 0-1.61-.32-1.61-.641 0-.384.902-.641 1.932-.641 1.61 0 1.932-.256 1.932-1.602 0-1.538-.193-1.602-3.735-1.602-2.061 0-3.992.192-4.186.448zm13.009-.064c-1.16.32-4.122 8.842-3.542 10.252.515 1.281 3.413 1.153 4.186-.192.579-1.089.644-1.089 1.803 0 1.482 1.281 4.701 1.474 4.701.256 0-.384-.644-2.947-1.482-5.574-1.288-4.229-1.674-4.806-3.027-4.934-.902 0-2.061.064-2.64.192zm1.803 5.831c-.193.641-.322.256-.322-.769 0-1.089.129-1.538.322-1.153.129.448.129 1.346 0 1.922zm7.47-5.767c-.58.192-.837 1.986-.837 5.703v5.382h1.868c1.61 0 1.932-.32 2.189-1.794.257-1.666.257-1.666.772-.32.258.833.902 1.474 1.352 1.474.515 0 1.224-.641 1.546-1.474.515-1.346.58-1.346.58.384.065 1.602.257 1.794 2.061 1.602l1.996-.192.065-5.318c.129-4.934.064-5.318-1.288-5.638-2.061-.513-3.799.705-4.379 3.076l-.451 2.114-.708-2.243c-.902-3.011-2.254-3.78-4.765-2.755zm-106.707.641c-.193.256-.386 1.089-.386 1.922 0 1.474.064 1.474 7.406 1.474s7.406 0 7.406-1.474c0-2.178-.58-2.435-2.64-1.41-2.318 1.217-7.213 1.217-9.531 0-1.03-.513-1.996-.705-2.254-.513zm-1.868 5.702c-1.03 1.089.708 1.538 5.731 1.538h5.409v2.243c0 1.217.322 2.243.644 2.243.386 0 .644-.961.644-2.178 0-2.114.129-2.243 2.576-2.435 1.417-.128 2.576-.513 2.576-.833 0-.705-16.872-1.281-17.581-.577z"/><path d="M8.629 23.308c0 3.524 1.224 4.229 7.406 4.229s7.406-.705 7.406-4.229c0-1.538-.322-2.178-.966-2.178-.58 0-.966.577-.966 1.538 0 3.588-4.894 3.908-5.603.384-.322-1.858-.515-1.922-3.8-1.922H8.629v2.178zm3.993 7.24c.386 2.05 6.955 1.858 6.955-.128 0-.705-.837-.961-3.606-.961-3.027 0-3.542.192-3.349 1.089z"/></symbol><symbol id="icon-logo-colorn" viewBox="0 0 127 32"><path fill="#fff" style="fill:var(--color1,#fff)" d="M31.36 16.32C31.36 24.98 24.483 32 16 32S.64 24.98.64 16.32 7.517.64 16 .64s15.36 7.02 15.36 15.68z"/><path fill="#d41443" style="fill:var(--color2,#d41443)" d="M11.849.562C4.443 2.805 0 8.635 0 16.004c0 6.023 3.091 11.277 8.179 13.904 2.64 1.346 3.027.384.58-1.474-1.739-1.41-2.061-2.05-2.061-4.421 0-1.666-.386-3.011-.966-3.524-1.159-.961-1.288-3.46-.129-4.357.451-.384.902-1.666.966-2.819.322-4.229 4.894-8.201 9.467-8.201s9.145 3.973 9.466 8.201c.064 1.153.515 2.435.966 2.819 1.159.897 1.03 3.396-.129 4.357-.58.513-.966 1.858-.966 3.524 0 2.371-.322 3.011-2.061 4.421-2.705 2.114-1.932 2.883 1.095 1.025 4.25-2.627 7.406-8.33 7.406-13.391C31.813 5.944 21.252-2.257 11.85.562z"/><path fill="#d41443" style="fill:var(--color2,#d41443)" d="M12.686 7.994c-1.159.513-2.125 1.153-2.125 1.538 0 .705 3.477 1.986 5.474 1.986s5.474-1.281 5.474-1.986c0-.769-3.993-2.499-5.603-2.499-.644.064-2.125.449-3.22.961zm33.165 3.332c-.966.256-1.159 1.089-1.159 5.703v5.382h4.572l-.193-5.574c-.193-5.831-.451-6.279-3.22-5.51zm7.535.32c-2.125 1.153-2.898 2.563-2.898 5.318 0 3.78 2.061 5.574 5.86 5.318 2.576-.192 2.833-.384 3.027-1.986s.064-1.73-1.932-1.602c-2.061.192-2.125.064-2.125-2.05s.129-2.243 1.996-2.05c1.546.128 2.125-.128 2.383-1.089.129-.641 0-1.538-.386-1.922-.902-.897-4.25-.897-5.925.064zm7.663.064c-.193.513-.258 3.011-.129 5.638l.193 4.741h4.186c3.864 0 4.186-.128 4.379-1.474.193-1.217-.064-1.41-2.06-1.41-1.288 0-2.319-.32-2.319-.641 0-.384.902-.641 1.932-.641 1.481 0 1.932-.256 1.932-1.281s-.451-1.281-1.932-1.281c-1.03 0-1.932-.32-1.932-.641 0-.384.837-.641 1.868-.641 1.804 0 3.027-1.41 2.254-2.627-.58-.961-7.985-.705-8.372.256zm12.944-.192c-2.125.833-2.962 2.307-3.027 4.998-.065 4.613 1.803 6.215 6.633 5.767 1.868-.128 2.189-.448 2.189-1.794 0-1.41-.257-1.602-2.061-1.41-1.546.128-2.125-.064-2.447-1.089-.58-1.986.644-3.588 2.705-3.588 1.224 0 1.868-.384 1.996-1.217.451-2.05-2.833-3.011-5.989-1.666zm7.921-.256c-.323.256-.515 2.883-.515 5.831v5.382l2.06-.192c1.61-.128 2.19-.577 2.512-1.794l.386-1.602.515 1.73c.387 1.474.837 1.794 2.512 1.794 2.769 0 3.091-.448 1.932-2.691-.708-1.41-.837-2.114-.322-2.627.837-.833.902-3.652.129-4.87-.644-1.025-8.371-1.858-9.208-.961zm5.28 3.46c0 .705-.257 1.281-.644 1.281-.322 0-.644-.577-.644-1.281s.322-1.281.644-1.281c.387 0 .644.577.644 1.281zm6.247-3.396c-.258.192-.451 2.819-.451 5.767v5.318h4.186c4.057 0 4.186-.064 4.186-1.602 0-1.346-.322-1.602-1.932-1.602-1.03 0-1.932-.32-1.932-.641 0-.384.708-.641 1.61-.641 1.159 0 1.61-.32 1.61-1.281s-.451-1.281-1.61-1.281c-.902 0-1.61-.32-1.61-.641 0-.384.902-.641 1.932-.641 1.61 0 1.932-.256 1.932-1.602 0-1.538-.193-1.602-3.735-1.602-2.061 0-3.992.192-4.186.448zm13.009-.064c-1.16.32-4.122 8.842-3.542 10.252.515 1.281 3.413 1.153 4.186-.192.579-1.089.644-1.089 1.803 0 1.482 1.281 4.701 1.474 4.701.256 0-.384-.644-2.947-1.482-5.574-1.288-4.229-1.674-4.806-3.027-4.934-.902 0-2.061.064-2.64.192zm1.803 5.831c-.193.641-.322.256-.322-.769 0-1.089.129-1.538.322-1.153.129.448.129 1.346 0 1.922zm7.47-5.767c-.58.192-.837 1.986-.837 5.703v5.382h1.868c1.61 0 1.932-.32 2.189-1.794.257-1.666.257-1.666.772-.32.258.833.902 1.474 1.352 1.474.515 0 1.224-.641 1.546-1.474.515-1.346.58-1.346.58.384.065 1.602.257 1.794 2.061 1.602l1.996-.192.065-5.318c.129-4.934.064-5.318-1.288-5.638-2.061-.513-3.799.705-4.379 3.076l-.451 2.114-.708-2.243c-.902-3.011-2.254-3.78-4.765-2.755zm-106.707.641c-.193.256-.386 1.089-.386 1.922 0 1.474.064 1.474 7.406 1.474s7.406 0 7.406-1.474c0-2.178-.58-2.435-2.64-1.41-2.318 1.217-7.213 1.217-9.531 0-1.03-.513-1.996-.705-2.254-.513zm-1.868 5.702c-1.03 1.089.708 1.538 5.731 1.538h5.409v2.243c0 1.217.322 2.243.644 2.243.386 0 .644-.961.644-2.178 0-2.114.129-2.243 2.576-2.435 1.417-.128 2.576-.513 2.576-.833 0-.705-16.872-1.281-17.581-.577z"/><path fill="#d41443" style="fill:var(--color2,#d41443)" d="M8.629 23.308c0 3.524 1.224 4.229 7.406 4.229s7.406-.705 7.406-4.229c0-1.538-.322-2.178-.966-2.178-.58 0-.966.577-.966 1.538 0 3.588-4.894 3.908-5.603.384-.322-1.858-.515-1.922-3.8-1.922H8.629v2.178zm3.993 7.24c.386 2.05 6.955 1.858 6.955-.128 0-.705-.837-.961-3.606-.961-3.027 0-3.542.192-3.349 1.089z"/></symbol><symbol id="icon-icon-right-white" viewBox="0 0 26 32"><path stroke-linejoin="round" stroke-linecap="round" stroke="#fff" stroke-width="6.4" d="M5.172 3.2 19.341 16 5.172 28.8"/></symbol><symbol id="icon-icon-right-pink" viewBox="0 0 26 32"><path stroke-linejoin="round" stroke-linecap="round" stroke="rgba(212, 20, 67, 1)" stroke-width="6.4" d="M5.172 3.2 19.341 16 5.172 28.8"/></symbol><symbol id="icon-3-dots" viewBox="0 0 256 32"><path fill="#c7133e" style="fill:var(--color1,#c7133e)" d="M144 16c0 8.837-7.163 16-16 16s-16-7.163-16-16 7.163-16 16-16 16 7.163 16 16zM32 16c0 8.837-7.163 16-16 16S0 24.837 0 16 7.163 0 16 0s16 7.163 16 16zM256 16c0 8.837-7.163 16-16 16s-16-7.163-16-16 7.163-16 16-16 16 7.163 16 16z"/></symbol><symbol id="icon-icon-arrow-black" viewBox="0 0 22 32"><path stroke-linejoin="round" stroke-linecap="round" stroke-width="6.4" d="m4.545 3.2 13.7 12.8-13.7 12.8"/></symbol><symbol id="icon-icon-arrow-pink" viewBox="0 0 26 32"><path fill="none" stroke="#d41443" style="stroke:var(--color1,#d41443)" stroke-linejoin="round" stroke-linecap="round" stroke-width="6.4" d="M5.172 3.2 19.341 16 5.172 28.8"/></symbol><symbol id="icon-check" viewBox="0 0 42 32"><path fill="#fff" style="fill:var(--color1,#fff);stroke:var(--color1,#fff)" stroke="#fff" stroke-width=".64" d="m6.263 15.205-.22-.21-3.307 3.132 11.651 11.114L38.864 5.89l-3.285-3.134-21.192 20.197-8.124-7.75z"/></symbol><symbol id="icon-cup" viewBox="0 0 32 32"><path d="M8.3.175c-.094.119-.331.794-.706 2L7.038 4h-.463c-.563 0-.838.112-.975.406-.144.306-.144 2.944 0 3.25.125.263.419.406.831.406.294 0 .319.012.319.15 0 .181.169 2.244.219 2.669.031.275.025.294-.15.369-.388.156-.438.356-.356 1.5.056.856.125 1.162.287 1.25.188.1.469.075.588-.056.125-.137.131-.294.069-1.2l-.044-.619h17.2v.2c-.006.113-.238 3.063-.519 6.55l-.512 6.344-.844.031c-.913.038-1.1.094-1.163.356-.106.413.181.631.837.637.313.006.325.012.325.188 0 .094-.081 1.156-.188 2.35-.1 1.194-.188 2.2-.188 2.225 0 .031-2.825.056-6.344.056s-6.344-.025-6.344-.056c0-.025-.081-1.031-.188-2.225a135.76 135.76 0 0 1-.188-2.35v-.181l10.869-.031.137-.137a.473.473 0 0 0 0-.663l-.137-.137-11.706-.063-.394-4.844c-.213-2.663-.419-4.906-.45-4.975-.075-.169-.369-.275-.55-.206a.54.54 0 0 0-.231.2c-.088.131-.063.575.306 5.187.225 2.769.431 5.1.463 5.181a.715.715 0 0 0 .519.419l.206.044.231 2.744c.231 2.75.231 2.75.394 2.887l.162.144h13.8l.163-.144c.163-.137.163-.137.394-2.887l.231-2.744.206-.044a.713.713 0 0 0 .519-.419c.056-.144 1.119-13.044 1.131-13.738.006-.438-.106-.656-.394-.775-.175-.075-.181-.094-.15-.369.05-.425.219-2.488.219-2.669 0-.137.025-.15.319-.15.413 0 .706-.144.831-.406.144-.306.144-2.944 0-3.25-.137-.294-.413-.406-.975-.406h-.462l-.556-1.825c-.375-1.206-.613-1.881-.706-2l-.15-.175H8.449l-.15.175zM23.444 2.45l.469 1.519L22.826 4c-1.05.031-1.087.037-1.206.181-.163.2-.15.419.038.6l.15.156h3.694v2.188H6.439V4.937h13.694l.15-.156c.188-.181.2-.4.038-.6l-.119-.15-12.175-.063.469-1.519.469-1.512h14.012l.469 1.512zm.806 5.75c0 .181-.181 2.306-.225 2.656l-.031.269H7.944l-.031-.269A79.89 79.89 0 0 1 7.688 8.2v-.137h16.563V8.2z"/><path d="M8.731 13.506c-.287.169-.256.656.056.8.113.05 2.094.069 7.181.069s7.069-.019 7.181-.069c.319-.144.344-.644.044-.8-.169-.094-14.306-.094-14.463 0zM8.95 15.356c-.131.05-.269.381-.225.55.088.363-.313.344 7.244.344s7.156.019 7.244-.344c.044-.181-.094-.494-.244-.556-.125-.044-13.9-.044-14.019.006zM9.181 17.256c-.3.113-.369.494-.131.756.088.106.5.113 6.919.113s6.831-.006 6.919-.113c.244-.275.169-.644-.156-.762-.244-.081-13.319-.081-13.55.006zM9.194 19.288c-.169.219-.162.356.019.569l.15.175h13.213l.15-.175c.181-.212.188-.35.019-.569l-.125-.163H9.32l-.125.163zM9.481 21.069c-.287.169-.256.656.056.8.219.1 12.644.1 12.862 0 .319-.144.344-.644.044-.8-.169-.094-12.806-.094-12.963 0zM9.713 22.95c-.137.063-.275.294-.275.462 0 .05.069.163.156.244l.15.156h12.45l.15-.156c.087-.081.156-.194.156-.244 0-.175-.137-.4-.294-.469-.206-.094-12.3-.087-12.494.006z"/></symbol><symbol id="icon-ice-cream-van" viewBox="0 0 32 32"><path d="M15.719.512c-.488.531-.681.881-.781 1.413-.081.456-.012.944.194 1.369.106.225.119.3.063.469-.106.3-.081.862.05 1.15.069.144.219.375.35.513.213.244.225.269.162.494-.175.619-.025 1.031.619 1.725l.494.525-.619.606.563.575v2.15h-8.05l-.175.45c-.506 1.338-.731 1.9-1.631 3.963l-.975 2.25L.689 20.27v5.231H.001v2.813l1.881.012 1.887.019.1.375c.325 1.163 1.275 2.269 2.406 2.813a4.682 4.682 0 0 0 3.056.288c1.512-.394 2.794-1.637 3.206-3.119l.106-.387h7.025l.106.387c.394 1.413 1.637 2.669 3.05 3.081 1.731.5 3.619-.075 4.75-1.45.369-.444.731-1.119.869-1.613l.1-.375 1.731-.019 1.725-.012v-2.813h-.688v-14h-6.406l1.019-1.019c.556-.556 1.012-1.056 1.012-1.106s-.525-1.106-1.156-2.344l-1.15-2.25.119-.256c.15-.306.163-.869.031-1.188-.05-.119-.4-.538-.775-.919l-.688-.7-.669.656-.462-.475c-.256-.262-.581-.531-.719-.594-.281-.131-.9-.156-1.1-.05-.106.056-.169.025-.369-.156-.406-.369-.725-.5-1.188-.5-.425 0-.675.094-1.019.375-.288.244-.406.2-.981-.381-.294-.294-.563-.531-.6-.531-.044 0-.262.206-.494.45zM17.094 2c.369.119.731.044 1.219-.25.344-.206.475-.256.606-.219.212.05.519.269.519.363 0 .044-.45.525-1 1.075l-1 1 .325.325.325.331 1.256-1.25c1.194-1.188 1.269-1.25 1.494-1.25.212 0 .294.05.7.45l.462.456-4.438 4.438-.438-.438c-.244-.237-.456-.487-.475-.55-.056-.181.025-.4.231-.638l.194-.219-.506-.531c-.462-.481-.506-.55-.506-.781 0-.2.044-.3.225-.494l.219-.25-.281-.344c-.269-.331-.412-.663-.412-.95 0-.188.169-.656.287-.781.094-.106.119-.094.431.163.181.144.438.3.563.344zm6.556 1.375c.238.25.288.35.288.544 0 .225-.094.331-2.644 2.875-3.019 3.025-2.806 2.875-3.356 2.356-.175-.162-.313-.325-.313-.363 0-.069 5.625-5.725 5.694-5.725.019 0 .169.138.331.313zm.669 2.856.337.644-3.238 3.238-.712-.35L20 9.407l1.95-1.95c1.075-1.075 1.969-1.931 1.994-1.906.019.025.188.331.375.681zm1.187 2.319.337.637L23.73 11.3l-.712-.35-.706-.356 1.387-1.387c.762-.762 1.406-1.369 1.431-1.344.019.025.188.331.375.688zm-4.812 2.263 1.337.688H17.75v-.631c0-.631 0-.631.144-.588.344.106.825.1 1.075-.025.137-.069.281-.125.319-.125.044-.006.675.3 1.406.681zm9.681 2.093v.469H19.712c-8.506 0-10.656-.019-10.631-.081.012-.037.088-.25.169-.469l.144-.387h20.981v.469zm-16 3.282v1.875h-3.662c-2.906 0-3.656-.019-3.631-.081.081-.2 1.556-3.575 1.581-3.619.019-.025 1.313-.05 2.875-.05h2.838v1.875zm2.45 1.949.019 3.831 12.031.031v-7.688h1.5v11.188h-2.181l-.225-.375c-.988-1.631-2.906-2.475-4.75-2.094-1.3.269-2.375 1.044-3.019 2.169l-.169.3h-7.75l-.169-.3c-.95-1.663-2.938-2.563-4.806-2.169-1.231.262-2.406 1.1-2.994 2.137l-.188.331h-2.5v-2.169l.487-.038a3.61 3.61 0 0 0 .763-.137c.594-.206 1.188-.8 1.412-1.406.069-.188.112-.569.131-1.125l.031-.844.981-.394.975-.387h8.906V14.31h1.5l.012 3.825zm11.113-3.231v.531H17.75v-1.063h10.188v.531zm0 3.813v2.344H17.75v-4.688h10.188v2.344zM3.487 20.762c-.05 1.05-.481 1.531-1.438 1.6l-.425.031v-1.5l.894-.35c.487-.188.913-.35.944-.35.025-.006.038.256.025.569zm5.525 3.2c1.775.425 2.981 2.156 2.738 3.931a3.587 3.587 0 0 1-5.2 2.725c-.438-.219-1.063-.794-1.344-1.231-.513-.8-.7-1.837-.494-2.725a3.687 3.687 0 0 1 2.569-2.669c.456-.131 1.244-.144 1.731-.031zm15.95.013a3.684 3.684 0 0 1 2.637 2.688c.137.594.087 1.413-.119 1.975-.55 1.45-1.856 2.375-3.363 2.375-1.806.006-3.306-1.313-3.556-3.119-.238-1.769.95-3.494 2.712-3.925.456-.113 1.238-.113 1.688.006zM3.725 26.906l-.056.469H.938v-.938h2.85l-.063.469zm15.938-.175c-.025.169-.056.375-.075.469l-.038.175h-6.787l-.037-.175c-.019-.094-.05-.3-.075-.469l-.037-.294h7.088l-.038.294zm11.4.175v.469h-2.419l-.056-.469-.063-.469h2.538v.469z"/><path d="m9.563 15.781-.719.719.331.325.325.331 1.469-1.469-.313-.313c-.169-.169-.325-.313-.344-.313s-.356.325-.75.719zM12.106 15.8l-.731.731.656.656 1.469-1.469-.656-.656-.738.738zM14.125 20.344v.469h1.25v-.938h-1.25v.469zM8.188 21.512v.469l.488.044a5.157 5.157 0 0 1 2.281.725c.225.137.438.25.463.25.056-.006.438-.512.494-.65.019-.056-.106-.175-.369-.337a6.494 6.494 0 0 0-2.838-.931l-.519-.038v.469zM12.425 23.256c-.169.137-.3.281-.3.319s.144.25.325.481c.181.225.331.425.338.438.025.031.775-.444.775-.5 0-.069-.744-.994-.8-.994-.025 0-.175.113-.338.256zM16.813 24.219v.469h2.438v-.938h-2.438v.469zM2.513 24.325l.019.456 1.031.038v-.944H2.494l.019.45zM24.688 17.781v.469h1.375v1.375h.938v-2.313h-2.313v.469zM18.731 17.794c-.025.019-.044.556-.044 1.188v1.144h3.063v-.938h-2.125V17.75H19.2c-.238 0-.45.019-.469.044zM7.463 25.238c-1.319.469-1.956 1.988-1.344 3.225.706 1.438 2.594 1.756 3.719.625 1.438-1.438.481-3.863-1.556-3.944-.362-.012-.588.012-.819.094zm1.275.925c.512.212.844.719.844 1.275 0 .419-.119.719-.4.994a1.392 1.392 0 0 1-1.556.275c-.769-.337-1.044-1.262-.588-2 .338-.55 1.106-.794 1.7-.544zM23.469 25.212c-.644.206-1.181.663-1.456 1.231-.806 1.663.625 3.587 2.456 3.3 1.681-.269 2.512-2.188 1.55-3.606-.55-.806-1.656-1.206-2.55-.925zm1.287 1.026c.788.413.988 1.462.406 2.125-.369.425-1.087.594-1.6.375-1.106-.469-1.1-2.1 0-2.575.356-.156.813-.125 1.194.075z"/></symbol><symbol id="icon-icecream" viewBox="0 0 32 32"><path d="m15.531.037-.469.094c-.5.1-1.287.5-1.719.875-.588.512-.963 1.056-1.25 1.819l-.113.3h-.331c-.519 0-.944.112-1.588.419a4.103 4.103 0 0 0-2.313 3.675c0 .981.4 2.031 1.037 2.713l.344.375-1.063.019c-1.013.019-1.075.025-1.206.162-.144.137-.144.15-.162 2.25-.013 1.412 0 2.181.05 2.338.106.369.281.425 1.275.425.825 0 .85.006.881.137.019.081.819 3.731 1.775 8.112 1.644 7.506 1.756 7.975 1.912 8.106l.162.144h6.488l.163-.144c.156-.131.269-.6 1.913-8.106.956-4.381 1.756-8.031 1.775-8.113.031-.131.056-.137.881-.137.994 0 1.169-.056 1.275-.425.05-.156.063-.925.05-2.338-.019-2.1-.019-2.112-.163-2.25-.131-.137-.194-.144-1.206-.162l-1.063-.019.344-.375c.413-.444.819-1.231.944-1.838.294-1.394-.106-2.731-1.119-3.756-.425-.425-.6-.556-1.1-.794-.644-.306-1.069-.419-1.594-.419h-.337l-.125-.344c-.194-.519-.369-.837-.644-1.188C18.704.923 17.854.361 17.066.154c-.4-.1-1.306-.175-1.537-.119zM16.9 1.188c1.35.462 2.169 1.569 2.169 2.944 0 .569-.144 1.138-.394 1.544-.069.119-.106.231-.075.256.188.156.706.506.762.506.2 0 .669-1.206.738-1.894.05-.481.044-.481.7-.325 1.413.331 2.387 1.538 2.4 2.969.012.856-.288 1.6-.881 2.188-.425.425-.825.662-1.369.819-.394.113-.681.119-4.95.119s-4.556-.006-4.95-.119a3.09 3.09 0 0 1-1.825-4.55c.606-1.031 1.938-1.663 3.106-1.469 1.387.237 2.456 1.344 2.6 2.7l.037.344 1.044.037-.037-.362c-.137-1.188-.619-2.112-1.469-2.825-.35-.288-1.2-.756-1.375-.756-.106 0-.081-.125.113-.531.35-.744 1.144-1.406 1.938-1.631.456-.125 1.3-.106 1.719.038zm7.35 11.718v1.531H7.75v-3.063h16.5v1.531zm-9.75 3.875c-.706.706-1.306 1.281-1.344 1.281s-.637-.575-1.344-1.281L10.531 15.5h5.25L14.5 16.781zm5.688 0c-.706.706-1.306 1.281-1.344 1.281s-.525-.462-1.094-1.031L16.725 16l.488-.5h4.256l-1.281 1.281zm-8.45 2.763c-.387.387-.719.706-.738.706s-.2-.769-.4-1.706c-.206-.931-.381-1.756-.4-1.825-.012-.069.481.381 1.106 1l1.131 1.125-.7.7zm9.687-1.1a65.198 65.198 0 0 1-.406 1.806c-.012.012-.344-.294-.738-.688l-.719-.719 1.106-1.106c.606-.613 1.113-1.1 1.125-1.087.012.006-.156.819-.369 1.794zm-4.381-.682c.563.563 1.019 1.044 1.019 1.081s-.462.525-1.031 1.094l-1.031 1.031-1.031-1.031c-.569-.569-1.031-1.056-1.031-1.094 0-.063 2-2.094 2.063-2.094.019 0 .488.456 1.044 1.012zm-3.388 5.551c-1.306 1.306-1.631 1.606-1.669 1.519-.025-.063-.2-.844-.394-1.731l-.35-1.625 1.912-1.913 2.125 2.125-1.625 1.625zm7.056-1.625c-.031.175-.219.4-.969 1.156l-.931.938-1.044-1.05-1.05-1.044 2.125-2.125.95.95c.938.938.956.962.919 1.175zm-3.649 1.781 1.031 1.031L16 26.594 13.906 24.5l1.031-1.031c.569-.569 1.044-1.031 1.063-1.031s.494.462 1.063 1.031zm3.118.637C19.95 25.169 19 29.518 19 29.55c0 .025-.506-.462-1.125-1.081l-1.125-1.125 1.731-1.731c.956-.956 1.744-1.738 1.744-1.738.006 0-.012.106-.044.231zm-6.037 4.344c-.625.625-1.125 1.081-1.137 1.038s-.188-.813-.387-1.706l-.356-1.625.444-.456.45-.45 2.094 2.094-1.106 1.106zm3.212 1c.731.731 1.331 1.363 1.331 1.406 0 .063-.569.081-2.688.081-2.1 0-2.688-.019-2.688-.075 0-.075 2.619-2.738 2.688-2.738.019 0 .625.6 1.356 1.325z"/></symbol><symbol id="icon-milkshake" viewBox="0 0 32 32"><path d="M22.487.293c-1.566.2-2.158.299-2.264.381-.094.069-.399.661-.83 1.609l-.686 1.497-.43.006c-.318.006-.518.05-.798.175-.362.162-.381.162-.661.069a1.84 1.84 0 0 0-.405-.1c-.087 0-.125-.087-.187-.43a2.047 2.047 0 0 0-1.191-1.553c-.287-.137-.43-.168-.873-.162-.449 0-.586.025-.886.168-.312.156-.923.717-.923.848 0 .025-.231.044-.511.044-.605 0-1.048.168-1.472.555-.249.225-.636.886-.636 1.092 0 .056-.1.15-.218.206-.293.143-.692.511-.855.798-.094.168-.187.25-.324.281-.605.131-1.241.699-1.472 1.322-.181.468-.15 1.148.069 1.603.2.424.636.848 1.054 1.023l.349.143.143 1.441c.661 6.681 1.865 12.045 3.425 15.283l.468.979-.131.143c-.337.356-.418.992-.193 1.46.075.15.125.287.112.293-.012.012-.511.225-1.104.468-1.266.518-1.354.574-1.516.886-.15.293-.15.574-.012.811.225.38.069.374 5.003.356 4.448-.019 4.491-.019 4.666-.15a.757.757 0 0 0 .256-.811c-.106-.387-.374-.593-1.266-.954-.443-.187-.954-.399-1.135-.474l-.324-.143.125-.237c.081-.162.119-.368.119-.649 0-.349-.025-.455-.187-.705-.1-.162-.187-.337-.187-.381 0-.05.125-.324.274-.611.449-.855.867-1.903.823-2.071-.056-.231-.212-.349-.443-.349-.268 0-.412.15-.586.611-.075.193-.343.786-.586 1.304l-.449.954h-1.198c-.917 0-1.204-.019-1.204-.075 0-.044-.225-.549-.499-1.123-1.291-2.682-2.364-7.099-3.019-12.401a56.736 56.736 0 0 0-.193-1.453l-.031-.168h4.959c3.924 0 4.959.019 4.959.075 0 .181-.318 2.539-.499 3.699-.337 2.183-.667 3.849-1.104 5.552-.381 1.485-.381 1.485-.181 1.678.231.237.574.193.717-.081.119-.212.692-2.576.973-3.992a81.59 81.59 0 0 0 1.154-7.928c.119-1.191.143-1.354.256-1.435.773-.568 1.06-1.073 1.06-1.871.006-.736-.337-1.347-.992-1.772-.343-.218-.374-.262-.399-.505-.044-.362-.262-.798-.561-1.11l-.243-.262 1.223-2.682 1.747-.225c.961-.125 1.909-.243 2.115-.268.418-.056.661-.237.661-.505 0-.237-.262-.468-.512-.462-.112.006-1.16.131-2.327.287zm-7.859 2.508c.524.237.792.78.661 1.335-.094.418-.087.468.081.636.143.143.187.15.611.119.412-.031.487-.019.755.125.356.193.536.206.736.044.237-.181.555-.324.674-.306.1.019-.031.337-.836 2.108l-.948 2.09-7.716.031-.318-.156c-.724-.356-.873-1.223-.318-1.828.181-.206.306-.262.705-.324.418-.069.48-.119.68-.543.175-.362.424-.586.786-.699.299-.1.38-.206.468-.643.044-.206.143-.468.231-.58.306-.393.88-.53 1.441-.324.393.137.561.05.774-.418.312-.692.911-.954 1.534-.667zm4.709 2.514c.094.15.125.318.125.611 0 .505.094.649.462.742.331.081.705.387.823.674a1.19 1.19 0 0 1-.424 1.435l-.256.175-1.335.019c-.73.012-1.329.006-1.329-.012 0-.031 1.584-3.537 1.69-3.736.081-.143.1-.137.243.094zm-3.431 4.628c0 .012-.125.293-.281.624l-.274.599h-2.963c-1.628 0-2.975-.019-2.988-.05-.019-.025-.05-.306-.069-.624l-.05-.574h3.312c1.821 0 3.312.012 3.312.025zm3.718.144c-.019.1-.05.38-.069.624l-.044.455h-1.553c-.855 0-1.553-.012-1.553-.025 0-.019.125-.299.274-.624l.281-.599h2.701l-.037.168zm-3.668 18.245c.112.112.094.468-.025.512-.056.019-.736.037-1.516.037-1.497 0-1.566-.012-1.566-.287 0-.318.087-.337 1.616-.337 1.017 0 1.435.019 1.491.075zm-.075 1.616c.2.225.549.418 1.347.742.418.175.773.331.792.343.012.019-1.597.031-3.587.031l-3.612-.006.593-.243c1.011-.424 1.204-.524 1.485-.767l.268-.231h1.297c1.241 0 1.304.006 1.416.131z"/><path d="M11.191 13.854c-.106.119-.119.218-.1.823.012.38.05.742.081.805.15.274.655.262.805-.019.081-.137.075-1.004 0-1.335-.031-.137-.106-.281-.162-.324-.175-.125-.487-.1-.624.05zM14.122 13.854c-.112.125-.119.274-.119 3.406v3.275l.15.119c.2.162.455.15.618-.025l.137-.143V17.23c0-3.175-.006-3.262-.125-3.381-.168-.168-.505-.162-.661.006zM17.035 13.885c-.1.131-.131.256-.131.58 0 1.067-.243 3.15-.661 5.726-.031.225-.019.281.119.418.206.206.474.212.649.019.243-.256.711-3.587.805-5.689.037-.898.031-.942-.094-1.079a.458.458 0 0 0-.686.025zM11.446 17.123c-.087.081-.156.193-.156.25 0 .143.306 2.171.412 2.713.1.524.231.705.518.705.437 0 .518-.262.356-1.173-.05-.274-.15-.923-.225-1.435-.106-.742-.162-.967-.268-1.079-.175-.187-.443-.181-.636.019z"/></symbol><symbol id="icon-placeholder" viewBox="0 0 32 32"><path d="M14.719.094A10.475 10.475 0 0 0 9.488 2.3c-.238.188-.431.388-.431.444-.019.219.019.356.131.469.194.2.456.15.825-.144 1.119-.887 2.406-1.525 3.731-1.844 3.288-.8 6.775.212 9.069 2.625 1.563 1.644 2.438 3.613 2.631 5.9.244 2.887-1.094 6.869-3.806 11.344-1.125 1.85-2.875 4.35-4.313 6.163-.45.575-.794.769-1.325.769s-.875-.194-1.325-.769c-1.438-1.813-3.188-4.313-4.313-6.163-2.737-4.519-4.069-8.506-3.8-11.425.15-1.694.638-3.1 1.556-4.506.175-.269.319-.525.319-.563a.515.515 0 0 0-.256-.45c-.319-.163-.469-.063-.881.563-1.619 2.456-2.075 5.263-1.388 8.475.644 3.006 2.544 6.931 5.3 10.969l.6.875-1.887.031c-1.688.025-1.919.044-2.112.15-.481.256-.581.413-1.631 2.681-.969 2.094-1.019 2.212-1.013 2.575.006.462.131.769.456 1.094.463.463-.05.438 8.794.438h7.9l.15-.156c.2-.194.2-.431 0-.625l-.15-.156h-3.538l2.519-2.519 2.525-2.512.119.156c.119.15 1.55 3.181 1.869 3.95.125.313.137.375.063.55-.125.3-.337.375-1.075.375-.688.006-.813.05-.913.319-.069.175.006.413.163.531s1.337.113 1.756-.012c.375-.106.756-.45.919-.819.056-.131.106-.406.106-.613.006-.363-.044-.481-.981-2.512-.544-1.175-1.075-2.238-1.175-2.363a2.029 2.029 0 0 0-.444-.363c-.25-.131-.35-.137-2.156-.169l-1.887-.031.6-.875c2.819-4.125 4.7-8.044 5.331-11.125.381-1.863.375-3.588-.025-5.156-.738-2.938-2.775-5.438-5.563-6.831-.55-.275-1.781-.694-2.406-.819A10.772 10.772 0 0 0 14.72.095zm-1.438 26.887c.412.538.762 1 .769 1.031.012.025-1.525.05-3.419.05-1.919 0-3.444-.025-3.444-.056 0-.125.756-1.681.894-1.837L8.237 26h4.294l.75.981zm8.157.05-1.031 1.031h-1.238c-.681 0-1.231-.025-1.219-.05.012-.031.356-.494.769-1.031l.75-.981h3l-1.031 1.031zm-3 3-1.031 1.031h-5.425c-5.944 0-5.694.012-5.85-.369-.094-.219-.075-.288.294-1.087L6.707 29h12.762l-1.031 1.031z"/><path d="M15.469 3.256c-2.406.206-4.387 1.906-5.037 4.306-.2.738-.2 2.113-.006 2.813l.131.469-.219.175c-.35.294-.475.613-.512 1.3-.037.825.075 1.206.463 1.55.181.156.375.269.519.287.125.019.269.063.319.088.056.031.4 1.213.956 3.325.537 2.038.938 3.431 1.056 3.681.363.762 1.206 1.456 2.056 1.694.356.094 1.256.094 1.612 0 .85-.238 1.694-.931 2.056-1.694.119-.256.512-1.637 1.056-3.681.563-2.131.894-3.294.956-3.325.05-.025.194-.069.319-.088.144-.019.337-.131.519-.287.387-.344.5-.725.462-1.55-.038-.688-.163-1.006-.512-1.3l-.219-.181.131-.494c.194-.731.194-2.037 0-2.781-.738-2.769-3.262-4.544-6.106-4.306zm1.687 1.063c2.656.638 4.269 3.487 3.431 6.069l-.1.3h-2.819c-1.556.006-2.95.031-3.1.056-.519.1-.806.431-.875 1-.05.431-.162.581-.419.581-.238 0-.4-.213-.4-.525 0-.294-.188-.675-.412-.856-.181-.144-.256-.169-.662-.225-.281-.037-.294-.05-.387-.331-.694-2.138.325-4.606 2.331-5.656a4.774 4.774 0 0 1 3.413-.412zm-5.218 7.568c0 .544.35 1.081.844 1.306l.25.113-1.019-.012c-.994-.012-1.025-.019-1.144-.162-.094-.119-.119-.244-.119-.656 0-.725.056-.787.694-.787h.494v.2zm9.212-.062c.156.219.137 1.113-.019 1.306l-.119.15-7.481.025.25-.125c.519-.256.844-.762.844-1.319v-.175h6.431l.094.137zm-1.337 2.45c0 .063-1.625 6.156-1.694 6.35-.35 1.006-1.444 1.631-2.506 1.438-.813-.15-1.475-.7-1.731-1.438-.069-.194-1.694-6.287-1.694-6.35 0-.012 1.719-.025 3.813-.025 2.1 0 3.813.012 3.813.025z"/></symbol><symbol id="icon-birdie" viewBox="0 0 26 32"><path stroke-linejoin="round" stroke-linecap="round" stroke-width="6.4" d="M5.172 3.2 19.341 16 5.172 28.8"/></symbol></defs></svg>