<svg aria-hidden="true" xmlns="http://www.w3.org/2000/svg">
  <defs>
    <symbol id="icon-icon-arrow" viewBox="0 0 22 32">
      <path stroke-linejoin="round" stroke-linecap="round" stroke-width="6.4" d="m4.545 3.2 13.7 12.8-13.7 12.8" />
    </symbol>
    <symbol id="icon-icon-burger-menu" viewBox="0 0 46 32">
      <path stroke-width="2.286" d="M0 2.286h45.714M0 16h45.714M0 29.714h45.714" />
    </symbol>
    <symbol id="icon-icon-close" viewBox="0 0 32 32">
      <path stroke-width="2" d="m2.518 2 26.963 28M2 29.481 30 2.518" />
    </symbol>
    <symbol id="icon-icon-ellipse-grey" viewBox="0 0 35 32">
      <path d="M33.053 16c0 8.837-7.163 16-16 16s-16-7.163-16-16 7.163-16 16-16 16 7.163 16 16z" />
    </symbol>
    <symbol id="icon-icon-ellipse-white" viewBox="0 0 32 32">
      <path d="M32 16c0 8.837-7.163 16-16 16S0 24.837 0 16 7.163 0 16 0s16 7.163 16 16z" />
    </symbol>
    <symbol id="icon-icon-facebook" viewBox="0 0 16 32">
      <path
        d="M14.266 15.97H10.09v15.39H3.763V15.97H.754v-5.409h3.009v-3.5c0-2.503 1.182-6.422 6.384-6.422l4.687.02v5.25h-3.401c-.558 0-1.342.28-1.342 1.474v3.183h4.729l-.553 5.403z" />
    </symbol>
    <symbol id="icon-icon-github" viewBox="0 0 32 32">
      <path
        d="M16 .941C7.729.941.941 7.729.941 16c0 7.058 4.953 13.47 11.529 15.059v-4.982c-.652.143-1.251.147-1.915-.049-.89-.263-1.613-.855-2.15-1.759-.342-.577-.949-1.203-1.581-1.157l-.155-1.758c1.368-.117 2.551.833 3.254 2.014.312.525.671.832 1.132.968.446.131.924.068 1.481-.129.14-1.116.651-1.534 1.037-2.122v-.001c-3.922-.585-5.486-2.666-6.106-4.308-.822-2.181-.381-4.905 1.073-6.627.028-.034.079-.121.059-.183-.667-2.014.146-3.679.176-3.856.769.228.894-.229 3.342 1.258l.423.254c.177.105.121.045.298.032a12.77 12.77 0 0 1 3.16-.445 12.84 12.84 0 0 1 3.204.456l.137.014c-.012-.002.037-.009.12-.058 3.057-1.852 2.947-1.247 3.767-1.513.03.177.831 1.87.172 3.858-.089.274 2.65 2.782 1.132 6.809-.62 1.643-2.183 3.724-6.106 4.309v.001c.503.766 1.107 1.174 1.104 2.755v6.219C26.105 29.47 31.057 23.058 31.057 16 31.057 7.729 24.27.941 15.998.941z" />
    </symbol>
    <symbol id="icon-icon-group1" viewBox="0 0 21 32">
      <path
        d="M2.333.144c-.35.187-.553.563-.553 1.006.006.813.209 1.556.614 2.2l.178.294-.338.381c-.381.425-.473.581-.645 1.087-.141.412-.153 1.162-.031 1.581.43 1.438 1.854 2.269 3.248 1.9.473-.125.761-.281 1.203-.656l.375-.313.35.175c.196.1.528.244.743.325l.381.138v.7c0 1.106.227 1.762.81 2.356s1.498.9 2.29.762c.565-.1 1.117-.381 1.492-.762.583-.594.81-1.25.81-2.356v-.7l.387-.138c.209-.081.54-.225.737-.325l.35-.175.375.313c.442.375.731.531 1.203.656 1.394.369 2.818-.463 3.248-1.9.123-.419.111-1.169-.031-1.581-.172-.506-.264-.662-.645-1.087l-.338-.381.178-.294c.405-.644.608-1.387.614-2.2 0-.444-.203-.819-.553-1.006L18.521 0H2.595l-.264.144zM17.068 2.1c0 .019-.178.313-.399.663-.651 1.031-.626 1.256.239 2.169.313.331.602.662.645.737.233.463-.233 1.037-.749.919-.123-.025-.393-.244-.786-.631-.786-.775-1.056-.862-1.658-.519-.694.4-1.578.806-2.008.925-.608.175-.817.306-.976.638-.129.256-.141.362-.141 1.362 0 1.231-.049 1.431-.399 1.6-.252.125-.301.125-.553 0-.35-.169-.399-.369-.399-1.6 0-1-.012-1.106-.135-1.362-.166-.325-.375-.462-.982-.638-.528-.15-1.308-.494-1.738-.775-.405-.263-.761-.362-1.044-.313-.184.037-.368.181-.86.662-.405.394-.694.625-.817.65-.51.119-.976-.463-.743-.919.043-.075.332-.406.645-.737.866-.912.89-1.138.239-2.169-.221-.35-.399-.644-.399-.663 0-.025 2.929-.038 6.508-.038s6.508.013 6.508.038zM.485 13.206c-.313.212-.485.512-.485.844 0 .225 3.119 16.925 3.229 17.275.055.194.282.425.522.55.227.125.387.125 6.809.125s6.582 0 6.809-.125c.239-.125.467-.356.522-.55.11-.35 3.229-17.05 3.229-17.275 0-.331-.172-.631-.485-.844l-.209-.144H.694l-.209.144zm18.21 2.275c-.061.5-.418 1.587-.682 2.081-1.283 2.375-3.714 3.819-6.729 3.988-2.278.131-4.206-.331-5.82-1.394a7 7 0 0 1-2.265-2.438c-.307-.544-.712-1.712-.774-2.237l-.043-.356h16.356l-.043.356zM4.39 21.919c2.634 1.775 6.569 2.244 9.885 1.169a10.688 10.688 0 0 0 3.18-1.688c.276-.219.295-.219.264-.081-.018.081-.381 1.994-.804 4.244s-.78 4.156-.798 4.231l-.031.144H5.035l-.031-.144c-.018-.075-.375-1.981-.798-4.231s-.786-4.163-.804-4.244c-.031-.137-.012-.137.264.081.16.125.491.356.724.519z" />
    </symbol>
    <symbol id="icon-icon-group2" viewBox="0 0 32 32">
      <path
        d="M29.528 21.41c-1.292-.458-2.382-.344-3.242.018.145-.877.47-1.832 1.17-2.481a1.065 1.065 0 0 0-1.449-1.561c-1.229 1.14-1.706 2.748-1.874 4.081a4.036 4.036 0 0 0-1.058-.311l1.89-9.83a1.065 1.065 0 0 0-1.046-1.266h-.204c.094-.5.141-.997.137-1.47-.016-1.994-.903-3.495-2.374-4.017-1.41-.5-2.59-.35-3.507.066.145-.976.494-2.063 1.282-2.794A1.065 1.065 0 0 0 17.804.284c-1.32 1.225-1.815 2.965-1.982 4.386-.735-.348-1.644-.527-2.708-.33-1.094-1.571-2.613-2.296-4.089-1.942-1.451.349-2.358 1.115-2.901 1.962-.41-.899-.712-2.001-.452-3.036A1.065 1.065 0 0 0 3.607.805c-.439 1.746.095 3.476.729 4.758-1.016.137-2.117.65-3.049 1.866-.578.755-.773 1.698-.596 2.7a1.065 1.065 0 0 0-.674 1.197l3.809 19.81c.096.501.535.864 1.046.864h15.237c.511 0 .949-.362 1.046-.864l.037-.195c.287.198.596.363.927.487 1.266.471 2.447.278 3.044.118.316.085.795.179 1.364.179.506 0 1.084-.075 1.68-.297 2.36-.879 3.615-3.839 3.596-6.178-.015-1.904-.866-3.339-2.276-3.839zm-6.951-9.22c-.49 4.705-4.452 7.909-9.971 7.909s-9.481-3.204-9.971-7.91h19.942zm-6.643-4.675a1.047 1.047 0 0 0 1.86 0c.029-.048.29-.466.769-.777.629-.408 1.35-.46 2.203-.157.851.302.952 1.518.956 2.027.004.464-.064.962-.191 1.453h-7.126c.236-1.189.094-2.492-.289-3.669a2.12 2.12 0 0 1 1.047.346c.479.311.74.729.769.777zM2.98 8.724c.55-.719 1.182-1.068 1.932-1.069h.002c.57 0 1.016.208 1.066.232a1.05 1.05 0 0 0 1.079-.037c.331-.211.51-.591.481-.983-.006-.077-.115-1.893 1.983-2.397.876-.211 1.625.754 1.906 1.178.807 1.22 1.221 3.108.777 4.413H2.857c-.141-.443-.179-.943.122-1.336zM5.754 29.87 3.643 18.892c.138.133.281.263.427.389 2.208 1.901 5.239 2.948 8.535 2.948s6.328-1.047 8.535-2.948c.052-.044.102-.09.152-.135l-.431 2.243c-.02.007-.041.013-.061.021-1.41.5-2.261 1.935-2.276 3.839-.009 1.164.297 2.483.898 3.622l-.192.999H5.753zm21.711-.438c-.943.351-1.881.017-1.916.005a1.04 1.04 0 0 0-.768 0c-.009.004-.96.352-1.917-.004-1.338-.498-2.223-2.556-2.21-4.165.004-.466.095-1.578.858-1.849.349-.124.661-.175.939-.175 1.107 0 1.657.812 1.782 1.024a1.047 1.047 0 0 0 1.862 0c.156-.266.977-1.468 2.721-.849.763.271.854 1.383.858 1.849.013 1.609-.872 3.667-2.21 4.165z" />
    </symbol>
    <symbol id="icon-icon-group4" viewBox="0 0 28 32">
      <path stroke-width=".308"
        d="M.667 11.16c.587 2.696 1.894 5.088 3.953 7.163 1.839 1.86 3.455 2.99 6.008 4.163h.001l1.238.581v8.47h1.73v-7.901l.159.047c.229.066.567.066.796 0h.001l.159-.046v7.901h1.73v-8.481l1.179-.536c2.469-1.138 4.263-2.372 6.008-4.141 2.786-2.829 4.217-6.052 4.217-9.561.012-3.851-2.01-7-5.213-8.076-.689-.24-1.054-.274-2.316-.262M.667 11.16l13.614-8.305-.098-.072M.667 11.16C.533 10.545.465 9.706.462 8.884c-.003-.82.059-1.636.194-2.201.723-3.189 2.943-5.549 5.82-6.152M.667 11.16 6.475.531M20.317.482zm0 0c-.658.006-1.07.02-1.444.074-.376.054-.709.146-1.208.303h-.002c-1.188.385-2.356.994-3.133 1.632l-.001.001-.346.291m0 0-.543-.401C11.968 1.152 10.255.553 8.244.471h-.001A15.571 15.571 0 0 0 7.207.47c-.312.01-.586.03-.733.063m7.709 2.25L6.475.532m6.684 3.701c-.238-.226-.669-.537-1.14-.832a9.827 9.827 0 0 0-1.336-.718 10.047 10.047 0 0 0-1.5-.419c-1.975-.362-3.49.022-4.825 1.21l-.001.001a6.666 6.666 0 0 0-.795.844 3.015 3.015 0 0 0-.232.33l.243.044c.238.042.56.096.909.154 1.231.192 2.186.449 3.209.942 1.02.492 2.103 1.215 3.592 2.33l.001.001c.605.464 1.625 1.059 2.651 1.541l.003.001c.458.226.898.452 1.238.636.17.092.316.175.427.242.056.034.104.064.142.091a.608.608 0 0 1 .098.08c.128.137.234.274.318.447s.141.372.182.631c.081.512.098 1.281.098 2.571 0 1.17.003 1.784.034 2.135.015.175.036.271.061.332a.362.362 0 0 0 .096.135c.246.24.583.23.762.031l.004-.004c.05-.052.097-.135.125-.456.027-.32.033-.837.033-1.723 0-1.173.029-1.886.159-2.378a1.75 1.75 0 0 1 .292-.622 2.34 2.34 0 0 1 .488-.459l.002-.001a1.77 1.77 0 0 1 .647-.308c.27-.071.643-.124 1.24-.193h.001c1.864-.207 2.941-.447 4.23-.937.405-.154.704-.268.927-.371.225-.103.357-.188.439-.273a.501.501 0 0 0 .134-.302c.02-.142.014-.324.002-.588v-.003a8.836 8.836 0 0 0-.256-1.707v-.001c-.709-2.681-2.921-4.56-5.316-4.56-1.787 0-3.967.84-5.314 2.061l-.001.001c-.22.197-.405.352-.572.459s-.327.175-.495.182a.843.843 0 0 1-.486-.149 3.572 3.572 0 0 1-.517-.425zm-9.972.388-.003-.001.003.001zm5.826 3.976-.001-.001C7.78 7.682 6.435 7.012 5.25 6.717a14.269 14.269 0 0 0-1.803-.295 6.97 6.97 0 0 0-.715-.04 1.234 1.234 0 0 0-.224.019 2.17 2.17 0 0 0-.148.496 8.7 8.7 0 0 0-.127.893c-.063.665-.077 1.407-.019 1.947.316 2.926 1.588 5.398 4.032 7.743 1.927 1.865 4.325 3.319 7.043 4.235l.002.001.862.305.874-.306c2.542-.871 5.036-2.326 6.844-4.018 1.246-1.168 1.889-1.964 2.711-3.37l.001-.001c.254-.428.603-1.203.874-1.892.135-.344.248-.661.32-.899a2.99 2.99 0 0 0 .058-.218 13.238 13.238 0 0 0-.912.3h-.001c-1.188.432-2.967.816-4.402.944h-.001l-.063.005c-.323.027-.548.045-.715.089-.166.044-.252.106-.311.216-.067.126-.107.328-.127.676-.018.322-.018.746-.018 1.313v.121c0 1.098-.014 1.745-.096 2.184a1.768 1.768 0 0 1-.189.553 1.974 1.974 0 0 1-.328.417c-.235.247-.47.425-.733.54s-.547.164-.871.164c-.5 0-.927-.099-1.284-.317s-.63-.547-.835-.983c-.105-.223-.164-.436-.198-.864-.033-.423-.042-1.067-.042-2.156 0-.906-.009-1.537-.031-1.957a4.775 4.775 0 0 0-.042-.47.824.824 0 0 0-.035-.144c-.001-.001-.007-.008-.023-.02s-.039-.029-.068-.048a3.193 3.193 0 0 0-.225-.13 8.752 8.752 0 0 0-.654-.31c-1.006-.42-2.333-1.164-3.138-1.761-.296-.219-.959-.703-1.48-1.084l-.001-.001zM2.49 6.407c-.002.001-.002.001 0 0zm.036-.038-.001.002.001-.002z" />
    </symbol>
<symbol id="icon-icon-group3" viewBox="0 0 32 32">
      <path d="M13.653 29.333v-7.467c0-0.213-0.053-0.32-0.213-0.427-1.6-1.067-3.147-2.24-4.587-3.52-1.387-1.28-2.667-2.72-3.573-4.427-1.173-2.293-1.387-4.64-0.373-7.040 0.8-1.867 2.187-3.2 4.267-3.627 2.027-0.48 3.84 0.053 5.387 1.493 0.32 0.267 0.587 0.587 0.853 0.907 0.373 0.427 0.853 0.427 1.227 0 0.533-0.693 1.173-1.333 1.973-1.76 1.227-0.693 2.507-0.96 3.84-0.693 2.507 0.427 4.107 1.973 4.907 4.32 0.747 2.24 0.48 4.373-0.64 6.453-0.907 1.707-2.133 3.093-3.573 4.373-1.44 1.333-2.987 2.453-4.587 3.52-0.16 0.107-0.213 0.213-0.213 0.427v7.467h-4.693zM12.16 11.947c-0.053 0-0.053 0 0 0-0.053 0.267-0.053 0.533-0.053 0.747 0 0.533 0.32 0.907 0.8 0.907 0.427 0 0.747-0.373 0.747-0.853v-1.493c0.053-1.173 0.853-2.133 1.92-2.293 1.44-0.213 2.72 0.8 2.773 2.293v1.547c0 0.373 0.16 0.64 0.48 0.747 0.533 0.213 1.013-0.16 1.067-0.747v-1.547c0.053-1.013 0.48-1.707 1.387-2.133 0.907-0.373 1.707-0.267 2.453 0.373 0.533 0.427 0.747 1.013 0.8 1.707 0.053 0.48 0.32 0.8 0.747 0.8 0.213 0 0.373-0.053 0.427-0.267 0.107-0.427 0.267-0.907 0.32-1.333 0.213-1.867-0.16-3.52-1.493-4.907-1.387-1.44-3.627-1.707-5.333-0.587-0.48 0.32-0.907 0.693-1.227 1.173-1.013 1.387-2.987 1.387-3.947 0-0.053-0.107-0.107-0.16-0.213-0.267-0.533-0.587-1.12-1.067-1.867-1.333-2.080-0.693-4.32 0.16-5.333 2.133-0.853 1.653-0.907 3.307-0.373 5.067 0.107 0.32 0.267 0.373 0.587 0.32 0.373-0.107 0.533-0.373 0.587-0.853 0.107-1.173 0.96-2.080 2.133-2.24 1.12-0.107 2.187 0.587 2.453 1.707 0.107 0.48 0.107 0.907 0.16 1.333zM7.2 13.6c0.587 0.907 1.28 1.707 2.080 2.507 1.6 1.6 3.467 2.987 5.333 4.213 0.907 0.587 1.867 0.587 2.773 0l1.12-0.8c1.813-1.28 3.52-2.613 5.013-4.32 0.48-0.533 0.907-1.12 1.333-1.653-0.053-0.053-0.053-0.053-0.107-0.053-1.12-0.373-1.707-1.12-1.76-2.293 0-0.32-0.213-0.533-0.48-0.693-0.533-0.213-1.013 0.16-1.067 0.747v1.6c-0.053 1.28-1.067 2.293-2.347 2.293s-2.293-1.013-2.347-2.293v-1.547c0-0.16-0.053-0.373-0.107-0.533-0.16-0.267-0.533-0.427-0.853-0.32s-0.587 0.373-0.587 0.747v1.547c0 1.173-0.853 2.133-1.92 2.293-1.493 0.267-2.72-0.8-2.773-2.293v-1.547c0-0.32-0.16-0.587-0.427-0.693s-0.533-0.107-0.8 0.107c-0.213 0.16-0.267 0.427-0.267 0.693 0 0.64-0.267 1.227-0.8 1.653-0.32 0.32-0.693 0.48-1.013 0.64zM15.253 22.347v5.387h1.493v-5.387h-1.493z"></path>
      </symbol>

    <symbol id="icon-icon-home" viewBox="0 0 35 32">
      <path
        d="M32.64 15.401a1.541 1.541 0 0 0-.129-2.225L17.739.426c-.671-.578-1.745-.566-2.402.027L.515 13.856a1.532 1.532 0 0 0-.071 2.222l.372.382c.617.633 1.613.708 2.224.168l1.108-.979v14.326c0 .879.722 1.591 1.612 1.591h5.778c.89 0 1.612-.712 1.612-1.591V19.952h7.37v10.023c-.013.878.624 1.59 1.515 1.59h6.123c.89 0 1.613-.711 1.613-1.59V15.851l.683.592c.377.328 1.168.065 1.767-.586l.42-.455z" />
    </symbol>
    <symbol id="icon-icon-right" viewBox="0 0 26 32">
      <path stroke-linejoin="round" stroke-linecap="round" stroke-width="6.4" d="M5.172 3.2 19.341 16 5.172 28.8" />
    </symbol>
    <symbol id="icon-icon-telegram" viewBox="0 0 40 32">
      <path
        d="m16.205 20.751-.635 8.339c.909 0 1.302-.364 1.774-.802l4.261-3.801 8.829 6.035c1.619.842 2.76.399 3.197-1.39l5.797-25.346c.514-2.234-.866-3.108-2.443-2.56L2.92 13.398c-2.325.842-2.29 2.052-.395 2.6l8.709 2.528L31.463 6.712c.952-.588 1.818-.263 1.106.326L16.205 20.751z" />
    </symbol>
    <symbol id="icon-icon-testimonials" viewBox="0 0 43 32">
      <path
        d="M32.014 0c1.929 0 3.75.52 5.464 1.561s3.107 2.537 4.179 4.488C42.686 8 43.2 10.298 43.2 12.943s-.643 5.225-1.929 7.74c-.429.911-1.2 2.081-2.314 3.512a63.368 63.368 0 0 1-3.214 3.707L31.693 32 28.8 27.187a22.03 22.03 0 0 0 5.336-4.683c1.543-1.821 2.314-3.491 2.314-5.008 0-.78-.171-1.409-.514-1.886a8.359 8.359 0 0 1-5.014 1.626c-1.329 0-2.593-.412-3.793-1.236a8.555 8.555 0 0 1-2.957-3.122c-.771-1.258-1.157-2.558-1.157-3.902 0-1.518.45-2.97 1.35-4.358a10.222 10.222 0 0 1 3.407-3.382C29.143.412 30.558 0 32.015 0zM8.936 0c1.929 0 3.75.52 5.464 1.561s3.107 2.537 4.179 4.488c1.029 1.951 1.543 4.249 1.543 6.894 0 1.864-.236 3.534-.707 5.008-.471 1.518-1.286 3.1-2.443 4.748-1.114 1.561-2.164 2.862-3.15 3.902-.986 1.084-2.7 2.884-5.143 5.398l-2.893-4.813a22.03 22.03 0 0 0 5.336-4.683c1.543-1.821 2.314-3.491 2.314-5.008 0-.78-.171-1.409-.514-1.886a8.359 8.359 0 0 1-5.014 1.626c-1.329 0-2.593-.412-3.793-1.236a8.555 8.555 0 0 1-2.957-3.122C.387 11.619.001 10.319.001 8.975c0-1.518.429-2.97 1.286-4.358S3.28 2.102 4.694 1.235C6.065.411 7.48-.001 8.937-.001z" />
    </symbol>
    <symbol id="icon-logo" viewBox="0 0 127 32">
      <path d="M31.36 16.32C31.36 24.98 24.483 32 16 32S.64 24.98.64 16.32 7.517.64 16 .64s15.36 7.02 15.36 15.68z" />
      <path
        d="M11.849.562C4.443 2.805 0 8.635 0 16.004c0 6.023 3.091 11.277 8.179 13.904 2.64 1.346 3.027.384.58-1.474-1.739-1.41-2.061-2.05-2.061-4.421 0-1.666-.386-3.011-.966-3.524-1.159-.961-1.288-3.46-.129-4.357.451-.384.902-1.666.966-2.819.322-4.229 4.894-8.201 9.467-8.201s9.145 3.973 9.466 8.201c.064 1.153.515 2.435.966 2.819 1.159.897 1.03 3.396-.129 4.357-.58.513-.966 1.858-.966 3.524 0 2.371-.322 3.011-2.061 4.421-2.705 2.114-1.932 2.883 1.095 1.025 4.25-2.627 7.406-8.33 7.406-13.391C31.813 5.944 21.252-2.257 11.85.562z" />
      <path
        d="M12.686 7.994c-1.159.513-2.125 1.153-2.125 1.538 0 .705 3.477 1.986 5.474 1.986s5.474-1.281 5.474-1.986c0-.769-3.993-2.499-5.603-2.499-.644.064-2.125.449-3.22.961zM45.851 11.326c-.966.256-1.159 1.089-1.159 5.703v5.382h4.572l-.193-5.574c-.193-5.831-.451-6.279-3.22-5.51zM53.386 11.646c-2.125 1.153-2.898 2.563-2.898 5.318 0 3.78 2.061 5.574 5.86 5.318 2.576-.192 2.833-.384 3.027-1.986s.064-1.73-1.932-1.602c-2.061.192-2.125.064-2.125-2.05s.129-2.243 1.996-2.05c1.546.128 2.125-.128 2.383-1.089.129-.641 0-1.538-.386-1.922-.902-.897-4.25-.897-5.925.064zM61.049 11.71c-.193.513-.258 3.011-.129 5.638l.193 4.741h4.186c3.864 0 4.186-.128 4.379-1.474.193-1.217-.064-1.41-2.06-1.41-1.288 0-2.319-.32-2.319-.641 0-.384.902-.641 1.932-.641 1.481 0 1.932-.256 1.932-1.281s-.451-1.281-1.932-1.281c-1.03 0-1.932-.32-1.932-.641 0-.384.837-.641 1.868-.641 1.804 0 3.027-1.41 2.254-2.627-.58-.961-7.985-.705-8.372.256zM73.993 11.518c-2.125.833-2.962 2.307-3.027 4.998-.065 4.613 1.803 6.215 6.633 5.767 1.868-.128 2.189-.448 2.189-1.794 0-1.41-.257-1.602-2.061-1.41-1.546.128-2.125-.064-2.447-1.089-.58-1.986.644-3.588 2.705-3.588 1.224 0 1.868-.384 1.996-1.217.451-2.05-2.833-3.011-5.989-1.666zM81.914 11.262c-.323.256-.515 2.883-.515 5.831v5.382l2.06-.192c1.61-.128 2.19-.577 2.512-1.794l.386-1.602.515 1.73c.387 1.474.837 1.794 2.512 1.794 2.769 0 3.091-.448 1.932-2.691-.708-1.41-.837-2.114-.322-2.627.837-.833.902-3.652.129-4.87-.644-1.025-8.371-1.858-9.208-.961zm5.28 3.46c0 .705-.257 1.281-.644 1.281-.322 0-.644-.577-.644-1.281s.322-1.281.644-1.281c.387 0 .644.577.644 1.281zM93.441 11.326c-.258.192-.451 2.819-.451 5.767v5.318h4.186c4.057 0 4.186-.064 4.186-1.602 0-1.346-.322-1.602-1.932-1.602-1.03 0-1.932-.32-1.932-.641 0-.384.708-.641 1.61-.641 1.159 0 1.61-.32 1.61-1.281s-.451-1.281-1.61-1.281c-.902 0-1.61-.32-1.61-.641 0-.384.902-.641 1.932-.641 1.61 0 1.932-.256 1.932-1.602 0-1.538-.193-1.602-3.735-1.602-2.061 0-3.992.192-4.186.448zM106.45 11.262c-1.16.32-4.122 8.842-3.542 10.252.515 1.281 3.413 1.153 4.186-.192.579-1.089.644-1.089 1.803 0 1.482 1.281 4.701 1.474 4.701.256 0-.384-.644-2.947-1.482-5.574-1.288-4.229-1.674-4.806-3.027-4.934-.902 0-2.061.064-2.64.192zm1.803 5.831c-.193.641-.322.256-.322-.769 0-1.089.129-1.538.322-1.153.129.448.129 1.346 0 1.922zM115.723 11.326c-.58.192-.837 1.986-.837 5.703v5.382h1.868c1.61 0 1.932-.32 2.189-1.794.257-1.666.257-1.666.772-.32.258.833.902 1.474 1.352 1.474.515 0 1.224-.641 1.546-1.474.515-1.346.58-1.346.58.384.065 1.602.257 1.794 2.061 1.602l1.996-.192.065-5.318c.129-4.934.064-5.318-1.288-5.638-2.061-.513-3.799.705-4.379 3.076l-.451 2.114-.708-2.243c-.902-3.011-2.254-3.78-4.765-2.755zM9.016 11.967c-.193.256-.386 1.089-.386 1.922 0 1.474.064 1.474 7.406 1.474s7.406 0 7.406-1.474c0-2.178-.58-2.435-2.64-1.41-2.318 1.217-7.213 1.217-9.531 0-1.03-.513-1.996-.705-2.254-.513zM7.148 17.669c-1.03 1.089.708 1.538 5.731 1.538h5.409v2.243c0 1.217.322 2.243.644 2.243.386 0 .644-.961.644-2.178 0-2.114.129-2.243 2.576-2.435 1.417-.128 2.576-.513 2.576-.833 0-.705-16.872-1.281-17.581-.577z" />
      <path
        d="M8.629 23.308c0 3.524 1.224 4.229 7.406 4.229s7.406-.705 7.406-4.229c0-1.538-.322-2.178-.966-2.178-.58 0-.966.577-.966 1.538 0 3.588-4.894 3.908-5.603.384-.322-1.858-.515-1.922-3.8-1.922H8.629v2.178zM12.622 30.548c.386 2.05 6.955 1.858 6.955-.128 0-.705-.837-.961-3.606-.961-3.027 0-3.542.192-3.349 1.089z" />
    </symbol>
    <symbol id="icon-logo-colorn" viewBox="0 0 127 32">
      <path fill="#fff" style="fill:var(--color1, #fff)"
        d="M31.36 16.32C31.36 24.98 24.483 32 16 32S.64 24.98.64 16.32 7.517.64 16 .64s15.36 7.02 15.36 15.68z" />
      <path fill="#d41443" style="fill:var(--color2, #d41443)"
        d="M11.849.562C4.443 2.805 0 8.635 0 16.004c0 6.023 3.091 11.277 8.179 13.904 2.64 1.346 3.027.384.58-1.474-1.739-1.41-2.061-2.05-2.061-4.421 0-1.666-.386-3.011-.966-3.524-1.159-.961-1.288-3.46-.129-4.357.451-.384.902-1.666.966-2.819.322-4.229 4.894-8.201 9.467-8.201s9.145 3.973 9.466 8.201c.064 1.153.515 2.435.966 2.819 1.159.897 1.03 3.396-.129 4.357-.58.513-.966 1.858-.966 3.524 0 2.371-.322 3.011-2.061 4.421-2.705 2.114-1.932 2.883 1.095 1.025 4.25-2.627 7.406-8.33 7.406-13.391C31.813 5.944 21.252-2.257 11.85.562z" />
      <path fill="#d41443" style="fill:var(--color2, #d41443)"
        d="M12.686 7.994c-1.159.513-2.125 1.153-2.125 1.538 0 .705 3.477 1.986 5.474 1.986s5.474-1.281 5.474-1.986c0-.769-3.993-2.499-5.603-2.499-.644.064-2.125.449-3.22.961zM45.851 11.326c-.966.256-1.159 1.089-1.159 5.703v5.382h4.572l-.193-5.574c-.193-5.831-.451-6.279-3.22-5.51zM53.386 11.646c-2.125 1.153-2.898 2.563-2.898 5.318 0 3.78 2.061 5.574 5.86 5.318 2.576-.192 2.833-.384 3.027-1.986s.064-1.73-1.932-1.602c-2.061.192-2.125.064-2.125-2.05s.129-2.243 1.996-2.05c1.546.128 2.125-.128 2.383-1.089.129-.641 0-1.538-.386-1.922-.902-.897-4.25-.897-5.925.064zM61.049 11.71c-.193.513-.258 3.011-.129 5.638l.193 4.741h4.186c3.864 0 4.186-.128 4.379-1.474.193-1.217-.064-1.41-2.06-1.41-1.288 0-2.319-.32-2.319-.641 0-.384.902-.641 1.932-.641 1.481 0 1.932-.256 1.932-1.281s-.451-1.281-1.932-1.281c-1.03 0-1.932-.32-1.932-.641 0-.384.837-.641 1.868-.641 1.804 0 3.027-1.41 2.254-2.627-.58-.961-7.985-.705-8.372.256zM73.993 11.518c-2.125.833-2.962 2.307-3.027 4.998-.065 4.613 1.803 6.215 6.633 5.767 1.868-.128 2.189-.448 2.189-1.794 0-1.41-.257-1.602-2.061-1.41-1.546.128-2.125-.064-2.447-1.089-.58-1.986.644-3.588 2.705-3.588 1.224 0 1.868-.384 1.996-1.217.451-2.05-2.833-3.011-5.989-1.666zM81.914 11.262c-.323.256-.515 2.883-.515 5.831v5.382l2.06-.192c1.61-.128 2.19-.577 2.512-1.794l.386-1.602.515 1.73c.387 1.474.837 1.794 2.512 1.794 2.769 0 3.091-.448 1.932-2.691-.708-1.41-.837-2.114-.322-2.627.837-.833.902-3.652.129-4.87-.644-1.025-8.371-1.858-9.208-.961zm5.28 3.46c0 .705-.257 1.281-.644 1.281-.322 0-.644-.577-.644-1.281s.322-1.281.644-1.281c.387 0 .644.577.644 1.281zM93.441 11.326c-.258.192-.451 2.819-.451 5.767v5.318h4.186c4.057 0 4.186-.064 4.186-1.602 0-1.346-.322-1.602-1.932-1.602-1.03 0-1.932-.32-1.932-.641 0-.384.708-.641 1.61-.641 1.159 0 1.61-.32 1.61-1.281s-.451-1.281-1.61-1.281c-.902 0-1.61-.32-1.61-.641 0-.384.902-.641 1.932-.641 1.61 0 1.932-.256 1.932-1.602 0-1.538-.193-1.602-3.735-1.602-2.061 0-3.992.192-4.186.448zM106.45 11.262c-1.16.32-4.122 8.842-3.542 10.252.515 1.281 3.413 1.153 4.186-.192.579-1.089.644-1.089 1.803 0 1.482 1.281 4.701 1.474 4.701.256 0-.384-.644-2.947-1.482-5.574-1.288-4.229-1.674-4.806-3.027-4.934-.902 0-2.061.064-2.64.192zm1.803 5.831c-.193.641-.322.256-.322-.769 0-1.089.129-1.538.322-1.153.129.448.129 1.346 0 1.922zM115.723 11.326c-.58.192-.837 1.986-.837 5.703v5.382h1.868c1.61 0 1.932-.32 2.189-1.794.257-1.666.257-1.666.772-.32.258.833.902 1.474 1.352 1.474.515 0 1.224-.641 1.546-1.474.515-1.346.58-1.346.58.384.065 1.602.257 1.794 2.061 1.602l1.996-.192.065-5.318c.129-4.934.064-5.318-1.288-5.638-2.061-.513-3.799.705-4.379 3.076l-.451 2.114-.708-2.243c-.902-3.011-2.254-3.78-4.765-2.755zM9.016 11.967c-.193.256-.386 1.089-.386 1.922 0 1.474.064 1.474 7.406 1.474s7.406 0 7.406-1.474c0-2.178-.58-2.435-2.64-1.41-2.318 1.217-7.213 1.217-9.531 0-1.03-.513-1.996-.705-2.254-.513zM7.148 17.669c-1.03 1.089.708 1.538 5.731 1.538h5.409v2.243c0 1.217.322 2.243.644 2.243.386 0 .644-.961.644-2.178 0-2.114.129-2.243 2.576-2.435 1.417-.128 2.576-.513 2.576-.833 0-.705-16.872-1.281-17.581-.577z" />
      <path fill="#d41443" style="fill:var(--color2, #d41443)"
        d="M8.629 23.308c0 3.524 1.224 4.229 7.406 4.229s7.406-.705 7.406-4.229c0-1.538-.322-2.178-.966-2.178-.58 0-.966.577-.966 1.538 0 3.588-4.894 3.908-5.603.384-.322-1.858-.515-1.922-3.8-1.922H8.629v2.178zM12.622 30.548c.386 2.05 6.955 1.858 6.955-.128 0-.705-.837-.961-3.606-.961-3.027 0-3.542.192-3.349 1.089z" />
    </symbol>
    <symbol id="icon-icon-right-white" viewBox="0 0 26 32">
      <path stroke-linejoin="round" stroke-linecap="round" stroke="white" stroke-width="6.4"
        d="M5.172 3.2 19.341 16 5.172 28.8" />
    </symbol>
    <symbol id="icon-icon-right-pink" viewBox="0 0 26 32">
      <path stroke-linejoin="round" stroke-linecap="round" stroke="rgba(212, 20, 67, 1)" stroke-width="6.4"
        d="M5.172 3.2 19.341 16 5.172 28.8" />
    </symbol>
    <symbol id="icon-3-dots" viewBox="0 0 256 32">
      <path fill="#c7133e" style="fill: var(--color1, #c7133e)"
        d="M144 16c0 8.837-7.163 16-16 16s-16-7.163-16-16c0-8.837 7.163-16 16-16s16 7.163 16 16z"></path>
      <path fill="#c7133e" style="fill: var(--color1, #c7133e)"
        d="M32 16c0 8.837-7.163 16-16 16s-16-7.163-16-16c0-8.837 7.163-16 16-16s16 7.163 16 16z"></path>
      <path fill="#c7133e" style="fill: var(--color1, #c7133e)"
        d="M256 16c0 8.837-7.163 16-16 16s-16-7.163-16-16c0-8.837 7.163-16 16-16s16 7.163 16 16z"></path>
    </symbol>
    <symbol id="icon-icon-arrow-black" viewBox="0 0 22 32">
      <path stroke-linejoin="round" stroke-linecap="round" stroke-miterlimit="4" stroke-width="6.4"
        d="M4.545 3.2l13.7 12.8-13.7 12.8"></path>
    </symbol>
    <symbol id="icon-icon-arrow-pink" viewBox="0 0 26 32">
      <path fill="none" stroke="#d41443" style="stroke: var(--color1, #d41443)" stroke-linejoin="round"
        stroke-linecap="round" stroke-miterlimit="4" stroke-width="6.4" d="M5.172 3.2l14.169 12.8-14.169 12.8"></path>
    </symbol>
    <symbol id="icon-check" viewBox="0 0 42 32">
<path fill="#fff" style="fill: var(--color1, #fff); stroke: var(--color1, #fff)" stroke="#fff" stroke-linejoin="miter" stroke-linecap="butt" stroke-miterlimit="4" stroke-width="0.64" d="M6.263 15.205l-0.22-0.21-3.307 3.132 11.651 11.114 24.477-23.351-3.285-3.134-21.192 20.197-8.124-7.75z"></path>
</symbol>
<symbol id="icon-cup" viewBox="0 0 32 32">
<path d="M8.3 0.175c-0.094 0.119-0.331 0.794-0.706 2l-0.556 1.825h-0.463c-0.563 0-0.838 0.112-0.975 0.406-0.144 0.306-0.144 2.944 0 3.25 0.125 0.263 0.419 0.406 0.831 0.406 0.294 0 0.319 0.012 0.319 0.15 0 0.181 0.169 2.244 0.219 2.669 0.031 0.275 0.025 0.294-0.15 0.369-0.388 0.156-0.438 0.356-0.356 1.5 0.056 0.856 0.125 1.162 0.287 1.25 0.188 0.1 0.469 0.075 0.588-0.056 0.125-0.137 0.131-0.294 0.069-1.2l-0.044-0.619h17.2v0.2c-0.006 0.113-0.238 3.063-0.519 6.55l-0.512 6.344-0.844 0.031c-0.913 0.038-1.1 0.094-1.163 0.356-0.106 0.413 0.181 0.631 0.837 0.637 0.313 0.006 0.325 0.012 0.325 0.188 0 0.094-0.081 1.156-0.188 2.35-0.1 1.194-0.188 2.2-0.188 2.225 0 0.031-2.825 0.056-6.344 0.056s-6.344-0.025-6.344-0.056c0-0.025-0.081-1.031-0.188-2.225-0.1-1.194-0.188-2.256-0.188-2.35v-0.181l10.869-0.031 0.137-0.137c0.181-0.181 0.181-0.481 0-0.663l-0.137-0.137-11.706-0.063-0.394-4.844c-0.213-2.663-0.419-4.906-0.45-4.975-0.075-0.169-0.369-0.275-0.55-0.206-0.075 0.025-0.181 0.119-0.231 0.2-0.088 0.131-0.063 0.575 0.306 5.187 0.225 2.769 0.431 5.1 0.463 5.181 0.081 0.206 0.281 0.369 0.519 0.419l0.206 0.044 0.231 2.744c0.231 2.75 0.231 2.75 0.394 2.887l0.162 0.144h13.8l0.163-0.144c0.163-0.137 0.163-0.137 0.394-2.887l0.231-2.744 0.206-0.044c0.238-0.050 0.438-0.212 0.519-0.419 0.056-0.144 1.119-13.044 1.131-13.738 0.006-0.438-0.106-0.656-0.394-0.775-0.175-0.075-0.181-0.094-0.15-0.369 0.050-0.425 0.219-2.488 0.219-2.669 0-0.137 0.025-0.15 0.319-0.15 0.413 0 0.706-0.144 0.831-0.406 0.144-0.306 0.144-2.944 0-3.25-0.137-0.294-0.413-0.406-0.975-0.406h-0.462l-0.556-1.825c-0.375-1.206-0.613-1.881-0.706-2l-0.15-0.175h-15.037l-0.15 0.175zM23.444 2.45l0.469 1.519-1.087 0.031c-1.050 0.031-1.087 0.037-1.206 0.181-0.163 0.2-0.15 0.419 0.038 0.6l0.15 0.156h3.694v2.188h-19.063v-2.188h13.694l0.15-0.156c0.188-0.181 0.2-0.4 0.038-0.6l-0.119-0.15-12.175-0.063 0.469-1.519 0.469-1.512h14.012l0.469 1.512zM24.25 8.2c0 0.181-0.181 2.306-0.225 2.656l-0.031 0.269h-16.050l-0.031-0.269c-0.044-0.35-0.225-2.475-0.225-2.656v-0.137h16.563v0.137z"></path>
<path d="M8.731 13.506c-0.287 0.169-0.256 0.656 0.056 0.8 0.113 0.050 2.094 0.069 7.181 0.069s7.069-0.019 7.181-0.069c0.319-0.144 0.344-0.644 0.044-0.8-0.169-0.094-14.306-0.094-14.463 0z"></path>
<path d="M8.95 15.356c-0.131 0.050-0.269 0.381-0.225 0.55 0.088 0.363-0.313 0.344 7.244 0.344s7.156 0.019 7.244-0.344c0.044-0.181-0.094-0.494-0.244-0.556-0.125-0.044-13.9-0.044-14.019 0.006z"></path>
<path d="M9.181 17.256c-0.3 0.113-0.369 0.494-0.131 0.756 0.088 0.106 0.5 0.113 6.919 0.113s6.831-0.006 6.919-0.113c0.244-0.275 0.169-0.644-0.156-0.762-0.244-0.081-13.319-0.081-13.55 0.006z"></path>
<path d="M9.194 19.288c-0.169 0.219-0.162 0.356 0.019 0.569l0.15 0.175h13.213l0.15-0.175c0.181-0.212 0.188-0.35 0.019-0.569l-0.125-0.163h-13.3l-0.125 0.163z"></path>
<path d="M9.481 21.069c-0.287 0.169-0.256 0.656 0.056 0.8 0.219 0.1 12.644 0.1 12.862 0 0.319-0.144 0.344-0.644 0.044-0.8-0.169-0.094-12.806-0.094-12.963 0z"></path>
<path d="M9.713 22.95c-0.137 0.063-0.275 0.294-0.275 0.462 0 0.050 0.069 0.163 0.156 0.244l0.15 0.156h12.45l0.15-0.156c0.087-0.081 0.156-0.194 0.156-0.244 0-0.175-0.137-0.4-0.294-0.469-0.206-0.094-12.3-0.087-12.494 0.006z"></path>
</symbol>
<symbol id="icon-ice-cream-van" viewBox="0 0 32 32">
<path d="M15.719 0.512c-0.488 0.531-0.681 0.881-0.781 1.413-0.081 0.456-0.012 0.944 0.194 1.369 0.106 0.225 0.119 0.3 0.063 0.469-0.106 0.3-0.081 0.862 0.050 1.15 0.069 0.144 0.219 0.375 0.35 0.513 0.213 0.244 0.225 0.269 0.162 0.494-0.175 0.619-0.025 1.031 0.619 1.725l0.494 0.525-0.619 0.606 0.563 0.575v2.15h-8.050l-0.175 0.45c-0.506 1.338-0.731 1.9-1.631 3.963l-0.975 2.25-5.294 2.106v5.231h-0.688v2.813l1.881 0.012 1.887 0.019 0.1 0.375c0.325 1.163 1.275 2.269 2.406 2.813 0.925 0.431 2.069 0.544 3.056 0.288 1.512-0.394 2.794-1.637 3.206-3.119l0.106-0.387h7.025l0.106 0.387c0.394 1.413 1.637 2.669 3.050 3.081 1.731 0.5 3.619-0.075 4.75-1.45 0.369-0.444 0.731-1.119 0.869-1.613l0.1-0.375 1.731-0.019 1.725-0.012v-2.813h-0.688v-14h-6.406l1.019-1.019c0.556-0.556 1.012-1.056 1.012-1.106s-0.525-1.106-1.156-2.344l-1.15-2.25 0.119-0.256c0.15-0.306 0.163-0.869 0.031-1.188-0.050-0.119-0.4-0.538-0.775-0.919l-0.688-0.7-0.669 0.656-0.462-0.475c-0.256-0.262-0.581-0.531-0.719-0.594-0.281-0.131-0.9-0.156-1.1-0.050-0.106 0.056-0.169 0.025-0.369-0.156-0.406-0.369-0.725-0.5-1.188-0.5-0.425 0-0.675 0.094-1.019 0.375-0.288 0.244-0.406 0.2-0.981-0.381-0.294-0.294-0.563-0.531-0.6-0.531-0.044 0-0.262 0.206-0.494 0.45zM17.094 2c0.369 0.119 0.731 0.044 1.219-0.25 0.344-0.206 0.475-0.256 0.606-0.219 0.212 0.050 0.519 0.269 0.519 0.363 0 0.044-0.45 0.525-1 1.075l-1 1 0.325 0.325 0.325 0.331 1.256-1.25c1.194-1.188 1.269-1.25 1.494-1.25 0.212 0 0.294 0.050 0.7 0.45l0.462 0.456-4.438 4.438-0.438-0.438c-0.244-0.237-0.456-0.487-0.475-0.55-0.056-0.181 0.025-0.4 0.231-0.638l0.194-0.219-0.506-0.531c-0.462-0.481-0.506-0.55-0.506-0.781 0-0.2 0.044-0.3 0.225-0.494l0.219-0.25-0.281-0.344c-0.269-0.331-0.412-0.663-0.412-0.95 0-0.188 0.169-0.656 0.287-0.781 0.094-0.106 0.119-0.094 0.431 0.163 0.181 0.144 0.438 0.3 0.563 0.344zM23.65 3.375c0.238 0.25 0.288 0.35 0.288 0.544 0 0.225-0.094 0.331-2.644 2.875-3.019 3.025-2.806 2.875-3.356 2.356-0.175-0.162-0.313-0.325-0.313-0.363 0-0.069 5.625-5.725 5.694-5.725 0.019 0 0.169 0.138 0.331 0.313zM24.319 6.231l0.337 0.644-3.238 3.238-0.712-0.35-0.706-0.356 1.95-1.95c1.075-1.075 1.969-1.931 1.994-1.906 0.019 0.025 0.188 0.331 0.375 0.681zM25.506 8.55l0.337 0.637-2.113 2.113-0.712-0.35-0.706-0.356 1.387-1.387c0.762-0.762 1.406-1.369 1.431-1.344 0.019 0.025 0.188 0.331 0.375 0.688zM20.694 10.813l1.337 0.688h-4.281v-0.631c0-0.631 0-0.631 0.144-0.588 0.344 0.106 0.825 0.1 1.075-0.025 0.137-0.069 0.281-0.125 0.319-0.125 0.044-0.006 0.675 0.3 1.406 0.681zM30.375 12.906v0.469h-10.663c-8.506 0-10.656-0.019-10.631-0.081 0.012-0.037 0.088-0.25 0.169-0.469l0.144-0.387h20.981v0.469zM14.375 16.188v1.875h-3.662c-2.906 0-3.656-0.019-3.631-0.081 0.081-0.2 1.556-3.575 1.581-3.619 0.019-0.025 1.313-0.050 2.875-0.050h2.838v1.875zM16.825 18.137l0.019 3.831 12.031 0.031v-7.688h1.5v11.188h-2.181l-0.225-0.375c-0.988-1.631-2.906-2.475-4.75-2.094-1.3 0.269-2.375 1.044-3.019 2.169l-0.169 0.3h-7.75l-0.169-0.3c-0.95-1.663-2.938-2.563-4.806-2.169-1.231 0.262-2.406 1.1-2.994 2.137l-0.188 0.331h-2.5v-2.169l0.487-0.038c0.263-0.019 0.606-0.081 0.763-0.137 0.594-0.206 1.188-0.8 1.412-1.406 0.069-0.188 0.112-0.569 0.131-1.125l0.031-0.844 0.981-0.394 0.975-0.387h8.906v-4.688h1.5l0.012 3.825zM27.938 14.906v0.531h-10.188v-1.063h10.188v0.531zM27.938 18.719v2.344h-10.188v-4.688h10.188v2.344zM3.487 20.762c-0.050 1.050-0.481 1.531-1.438 1.6l-0.425 0.031v-1.5l0.894-0.35c0.487-0.188 0.913-0.35 0.944-0.35 0.025-0.006 0.038 0.256 0.025 0.569zM9.012 23.962c1.775 0.425 2.981 2.156 2.738 3.931-0.344 2.475-2.963 3.85-5.2 2.725-0.438-0.219-1.063-0.794-1.344-1.231-0.513-0.8-0.7-1.837-0.494-2.725 0.3-1.269 1.294-2.306 2.569-2.669 0.456-0.131 1.244-0.144 1.731-0.031zM24.962 23.975c1.294 0.331 2.331 1.394 2.637 2.688 0.137 0.594 0.087 1.413-0.119 1.975-0.55 1.45-1.856 2.375-3.363 2.375-1.806 0.006-3.306-1.313-3.556-3.119-0.238-1.769 0.95-3.494 2.712-3.925 0.456-0.113 1.238-0.113 1.688 0.006zM3.725 26.906l-0.056 0.469h-2.731v-0.938h2.85l-0.063 0.469zM19.663 26.731c-0.025 0.169-0.056 0.375-0.075 0.469l-0.038 0.175h-6.787l-0.037-0.175c-0.019-0.094-0.050-0.3-0.075-0.469l-0.037-0.294h7.088l-0.038 0.294zM31.063 26.906v0.469h-2.419l-0.056-0.469-0.063-0.469h2.538v0.469z"></path>
<path d="M9.563 15.781l-0.719 0.719 0.331 0.325 0.325 0.331 1.469-1.469-0.313-0.313c-0.169-0.169-0.325-0.313-0.344-0.313s-0.356 0.325-0.75 0.719z"></path>
<path d="M12.106 15.8l-0.731 0.731 0.656 0.656 1.469-1.469-0.656-0.656-0.738 0.738z"></path>
<path d="M14.125 20.344v0.469h1.25v-0.938h-1.25v0.469z"></path>
<path d="M8.188 21.512v0.469l0.488 0.044c0.831 0.069 1.588 0.306 2.281 0.725 0.225 0.137 0.438 0.25 0.463 0.25 0.056-0.006 0.438-0.512 0.494-0.65 0.019-0.056-0.106-0.175-0.369-0.337-0.8-0.506-1.863-0.856-2.838-0.931l-0.519-0.038v0.469z"></path>
<path d="M12.425 23.256c-0.169 0.137-0.3 0.281-0.3 0.319s0.144 0.25 0.325 0.481c0.181 0.225 0.331 0.425 0.338 0.438 0.025 0.031 0.775-0.444 0.775-0.5 0-0.069-0.744-0.994-0.8-0.994-0.025 0-0.175 0.113-0.338 0.256z"></path>
<path d="M16.813 24.219v0.469h2.438v-0.938h-2.438v0.469z"></path>
<path d="M2.513 24.325l0.019 0.456 1.031 0.038v-0.944h-1.069l0.019 0.45z"></path>
<path d="M24.688 17.781v0.469h1.375v1.375h0.938v-2.313h-2.313v0.469z"></path>
<path d="M18.731 17.794c-0.025 0.019-0.044 0.556-0.044 1.188v1.144h3.063v-0.938h-2.125v-1.438h-0.425c-0.238 0-0.45 0.019-0.469 0.044z"></path>
<path d="M7.463 25.238c-1.319 0.469-1.956 1.988-1.344 3.225 0.706 1.438 2.594 1.756 3.719 0.625 1.438-1.438 0.481-3.863-1.556-3.944-0.362-0.012-0.588 0.012-0.819 0.094zM8.738 26.163c0.512 0.212 0.844 0.719 0.844 1.275 0 0.419-0.119 0.719-0.4 0.994-0.406 0.406-1.019 0.512-1.556 0.275-0.769-0.337-1.044-1.262-0.588-2 0.338-0.55 1.106-0.794 1.7-0.544z"></path>
<path d="M23.469 25.212c-0.644 0.206-1.181 0.663-1.456 1.231-0.806 1.663 0.625 3.587 2.456 3.3 1.681-0.269 2.512-2.188 1.55-3.606-0.55-0.806-1.656-1.206-2.55-0.925zM24.756 26.238c0.788 0.413 0.988 1.462 0.406 2.125-0.369 0.425-1.087 0.594-1.6 0.375-1.106-0.469-1.1-2.1 0-2.575 0.356-0.156 0.813-0.125 1.194 0.075z"></path>
</symbol>
<symbol id="icon-icecream" viewBox="0 0 32 32">
<path d="M15.531 0.037c-0.069 0.013-0.281 0.056-0.469 0.094-0.5 0.1-1.287 0.5-1.719 0.875-0.588 0.512-0.963 1.056-1.25 1.819l-0.113 0.3h-0.331c-0.519 0-0.944 0.112-1.588 0.419-1.4 0.669-2.313 2.119-2.313 3.675 0 0.981 0.4 2.031 1.037 2.713l0.344 0.375-1.063 0.019c-1.013 0.019-1.075 0.025-1.206 0.162-0.144 0.137-0.144 0.15-0.162 2.25-0.013 1.412 0 2.181 0.050 2.338 0.106 0.369 0.281 0.425 1.275 0.425 0.825 0 0.85 0.006 0.881 0.137 0.019 0.081 0.819 3.731 1.775 8.112 1.644 7.506 1.756 7.975 1.912 8.106l0.162 0.144h6.488l0.163-0.144c0.156-0.131 0.269-0.6 1.913-8.106 0.956-4.381 1.756-8.031 1.775-8.113 0.031-0.131 0.056-0.137 0.881-0.137 0.994 0 1.169-0.056 1.275-0.425 0.050-0.156 0.063-0.925 0.050-2.338-0.019-2.1-0.019-2.112-0.163-2.25-0.131-0.137-0.194-0.144-1.206-0.162l-1.063-0.019 0.344-0.375c0.413-0.444 0.819-1.231 0.944-1.838 0.294-1.394-0.106-2.731-1.119-3.756-0.425-0.425-0.6-0.556-1.1-0.794-0.644-0.306-1.069-0.419-1.594-0.419h-0.337l-0.125-0.344c-0.194-0.519-0.369-0.837-0.644-1.188-0.531-0.669-1.381-1.231-2.169-1.438-0.4-0.1-1.306-0.175-1.537-0.119zM16.9 1.188c1.35 0.462 2.169 1.569 2.169 2.944 0 0.569-0.144 1.138-0.394 1.544-0.069 0.119-0.106 0.231-0.075 0.256 0.188 0.156 0.706 0.506 0.762 0.506 0.2 0 0.669-1.206 0.738-1.894 0.050-0.481 0.044-0.481 0.7-0.325 1.413 0.331 2.387 1.538 2.4 2.969 0.012 0.856-0.288 1.6-0.881 2.188-0.425 0.425-0.825 0.662-1.369 0.819-0.394 0.113-0.681 0.119-4.95 0.119s-4.556-0.006-4.95-0.119c-1.963-0.563-2.856-2.794-1.825-4.55 0.606-1.031 1.938-1.663 3.106-1.469 1.387 0.237 2.456 1.344 2.6 2.7l0.037 0.344 1.044 0.037-0.037-0.362c-0.137-1.188-0.619-2.112-1.469-2.825-0.35-0.288-1.2-0.756-1.375-0.756-0.106 0-0.081-0.125 0.113-0.531 0.35-0.744 1.144-1.406 1.938-1.631 0.456-0.125 1.3-0.106 1.719 0.038zM24.25 12.906v1.531h-16.5v-3.063h16.5v1.531zM14.5 16.781c-0.706 0.706-1.306 1.281-1.344 1.281s-0.637-0.575-1.344-1.281l-1.281-1.281h5.25l-1.281 1.281zM20.188 16.781c-0.706 0.706-1.306 1.281-1.344 1.281s-0.525-0.462-1.094-1.031l-1.025-1.031 0.488-0.5h4.256l-1.281 1.281zM11.738 19.544c-0.387 0.387-0.719 0.706-0.738 0.706s-0.2-0.769-0.4-1.706c-0.206-0.931-0.381-1.756-0.4-1.825-0.012-0.069 0.481 0.381 1.106 1l1.131 1.125-0.7 0.7zM21.425 18.444c-0.212 0.975-0.394 1.788-0.406 1.806-0.012 0.012-0.344-0.294-0.738-0.688l-0.719-0.719 1.106-1.106c0.606-0.613 1.113-1.1 1.125-1.087 0.012 0.006-0.156 0.819-0.369 1.794zM17.044 17.762c0.563 0.563 1.019 1.044 1.019 1.081s-0.462 0.525-1.031 1.094l-1.031 1.031-1.031-1.031c-0.569-0.569-1.031-1.056-1.031-1.094 0-0.063 2-2.094 2.063-2.094 0.019 0 0.488 0.456 1.044 1.012zM13.656 23.313c-1.306 1.306-1.631 1.606-1.669 1.519-0.025-0.063-0.2-0.844-0.394-1.731l-0.35-1.625 1.912-1.913 2.125 2.125-1.625 1.625zM20.712 21.688c-0.031 0.175-0.219 0.4-0.969 1.156l-0.931 0.938-1.044-1.050-1.050-1.044 2.125-2.125 0.95 0.95c0.938 0.938 0.956 0.962 0.919 1.175zM17.063 23.469l1.031 1.031-2.094 2.094-2.094-2.094 1.031-1.031c0.569-0.569 1.044-1.031 1.063-1.031s0.494 0.462 1.063 1.031zM20.181 24.106c-0.231 1.063-1.181 5.412-1.181 5.444 0 0.025-0.506-0.462-1.125-1.081l-1.125-1.125 1.731-1.731c0.956-0.956 1.744-1.738 1.744-1.738 0.006 0-0.012 0.106-0.044 0.231zM14.144 28.45c-0.625 0.625-1.125 1.081-1.137 1.038s-0.188-0.813-0.387-1.706l-0.356-1.625 0.444-0.456 0.45-0.45 2.094 2.094-1.106 1.106zM17.356 29.45c0.731 0.731 1.331 1.363 1.331 1.406 0 0.063-0.569 0.081-2.688 0.081-2.1 0-2.688-0.019-2.688-0.075 0-0.075 2.619-2.738 2.688-2.738 0.019 0 0.625 0.6 1.356 1.325z"></path>
</symbol>
<symbol id="icon-milkshake" viewBox="0 0 32 32">
<path d="M22.487 0.293c-1.566 0.2-2.158 0.299-2.264 0.381-0.094 0.069-0.399 0.661-0.83 1.609l-0.686 1.497-0.43 0.006c-0.318 0.006-0.518 0.050-0.798 0.175-0.362 0.162-0.381 0.162-0.661 0.069-0.162-0.056-0.343-0.1-0.405-0.1-0.087 0-0.125-0.087-0.187-0.43-0.125-0.705-0.536-1.248-1.191-1.553-0.287-0.137-0.43-0.168-0.873-0.162-0.449 0-0.586 0.025-0.886 0.168-0.312 0.156-0.923 0.717-0.923 0.848 0 0.025-0.231 0.044-0.511 0.044-0.605 0-1.048 0.168-1.472 0.555-0.249 0.225-0.636 0.886-0.636 1.092 0 0.056-0.1 0.15-0.218 0.206-0.293 0.143-0.692 0.511-0.855 0.798-0.094 0.168-0.187 0.25-0.324 0.281-0.605 0.131-1.241 0.699-1.472 1.322-0.181 0.468-0.15 1.148 0.069 1.603 0.2 0.424 0.636 0.848 1.054 1.023l0.349 0.143 0.143 1.441c0.661 6.681 1.865 12.045 3.425 15.283l0.468 0.979-0.131 0.143c-0.337 0.356-0.418 0.992-0.193 1.46 0.075 0.15 0.125 0.287 0.112 0.293-0.012 0.012-0.511 0.225-1.104 0.468-1.266 0.518-1.354 0.574-1.516 0.886-0.15 0.293-0.15 0.574-0.012 0.811 0.225 0.38 0.069 0.374 5.003 0.356 4.448-0.019 4.491-0.019 4.666-0.15 0.237-0.175 0.343-0.505 0.256-0.811-0.106-0.387-0.374-0.593-1.266-0.954-0.443-0.187-0.954-0.399-1.135-0.474l-0.324-0.143 0.125-0.237c0.081-0.162 0.119-0.368 0.119-0.649 0-0.349-0.025-0.455-0.187-0.705-0.1-0.162-0.187-0.337-0.187-0.381 0-0.050 0.125-0.324 0.274-0.611 0.449-0.855 0.867-1.903 0.823-2.071-0.056-0.231-0.212-0.349-0.443-0.349-0.268 0-0.412 0.15-0.586 0.611-0.075 0.193-0.343 0.786-0.586 1.304l-0.449 0.954h-1.198c-0.917 0-1.204-0.019-1.204-0.075 0-0.044-0.225-0.549-0.499-1.123-1.291-2.682-2.364-7.099-3.019-12.401-0.087-0.705-0.175-1.354-0.193-1.453l-0.031-0.168h4.959c3.924 0 4.959 0.019 4.959 0.075 0 0.181-0.318 2.539-0.499 3.699-0.337 2.183-0.667 3.849-1.104 5.552-0.381 1.485-0.381 1.485-0.181 1.678 0.231 0.237 0.574 0.193 0.717-0.081 0.119-0.212 0.692-2.576 0.973-3.992 0.499-2.52 0.892-5.215 1.154-7.928 0.119-1.191 0.143-1.354 0.256-1.435 0.773-0.568 1.060-1.073 1.060-1.871 0.006-0.736-0.337-1.347-0.992-1.772-0.343-0.218-0.374-0.262-0.399-0.505-0.044-0.362-0.262-0.798-0.561-1.11l-0.243-0.262 1.223-2.682 1.747-0.225c0.961-0.125 1.909-0.243 2.115-0.268 0.418-0.056 0.661-0.237 0.661-0.505 0-0.237-0.262-0.468-0.512-0.462-0.112 0.006-1.16 0.131-2.327 0.287zM14.628 2.801c0.524 0.237 0.792 0.78 0.661 1.335-0.094 0.418-0.087 0.468 0.081 0.636 0.143 0.143 0.187 0.15 0.611 0.119 0.412-0.031 0.487-0.019 0.755 0.125 0.356 0.193 0.536 0.206 0.736 0.044 0.237-0.181 0.555-0.324 0.674-0.306 0.1 0.019-0.031 0.337-0.836 2.108l-0.948 2.090-7.716 0.031-0.318-0.156c-0.724-0.356-0.873-1.223-0.318-1.828 0.181-0.206 0.306-0.262 0.705-0.324 0.418-0.069 0.48-0.119 0.68-0.543 0.175-0.362 0.424-0.586 0.786-0.699 0.299-0.1 0.38-0.206 0.468-0.643 0.044-0.206 0.143-0.468 0.231-0.58 0.306-0.393 0.88-0.53 1.441-0.324 0.393 0.137 0.561 0.050 0.774-0.418 0.312-0.692 0.911-0.954 1.534-0.667zM19.337 5.315c0.094 0.15 0.125 0.318 0.125 0.611 0 0.505 0.094 0.649 0.462 0.742 0.331 0.081 0.705 0.387 0.823 0.674 0.218 0.511 0.031 1.135-0.424 1.435l-0.256 0.175-1.335 0.019c-0.73 0.012-1.329 0.006-1.329-0.012 0-0.031 1.584-3.537 1.69-3.736 0.081-0.143 0.1-0.137 0.243 0.094zM15.906 9.943c0 0.012-0.125 0.293-0.281 0.624l-0.274 0.599h-2.963c-1.628 0-2.975-0.019-2.988-0.050-0.019-0.025-0.050-0.306-0.069-0.624l-0.050-0.574h3.312c1.821 0 3.312 0.012 3.312 0.025zM19.624 10.087c-0.019 0.1-0.050 0.38-0.069 0.624l-0.044 0.455h-1.553c-0.855 0-1.553-0.012-1.553-0.025 0-0.019 0.125-0.299 0.274-0.624l0.281-0.599h2.701l-0.037 0.168zM15.956 28.332c0.112 0.112 0.094 0.468-0.025 0.512-0.056 0.019-0.736 0.037-1.516 0.037-1.497 0-1.566-0.012-1.566-0.287 0-0.318 0.087-0.337 1.616-0.337 1.017 0 1.435 0.019 1.491 0.075zM15.881 29.948c0.2 0.225 0.549 0.418 1.347 0.742 0.418 0.175 0.773 0.331 0.792 0.343 0.012 0.019-1.597 0.031-3.587 0.031l-3.612-0.006 0.593-0.243c1.011-0.424 1.204-0.524 1.485-0.767l0.268-0.231h1.297c1.241 0 1.304 0.006 1.416 0.131z"></path>
<path d="M11.191 13.854c-0.106 0.119-0.119 0.218-0.1 0.823 0.012 0.38 0.050 0.742 0.081 0.805 0.15 0.274 0.655 0.262 0.805-0.019 0.081-0.137 0.075-1.004 0-1.335-0.031-0.137-0.106-0.281-0.162-0.324-0.175-0.125-0.487-0.1-0.624 0.050z"></path>
<path d="M14.122 13.854c-0.112 0.125-0.119 0.274-0.119 3.406v3.275l0.15 0.119c0.2 0.162 0.455 0.15 0.618-0.025l0.137-0.143v-3.256c0-3.175-0.006-3.262-0.125-3.381-0.168-0.168-0.505-0.162-0.661 0.006z"></path>
<path d="M17.035 13.885c-0.1 0.131-0.131 0.256-0.131 0.58 0 1.067-0.243 3.15-0.661 5.726-0.031 0.225-0.019 0.281 0.119 0.418 0.206 0.206 0.474 0.212 0.649 0.019 0.243-0.256 0.711-3.587 0.805-5.689 0.037-0.898 0.031-0.942-0.094-1.079-0.193-0.2-0.518-0.187-0.686 0.025z"></path>
<path d="M11.446 17.123c-0.087 0.081-0.156 0.193-0.156 0.25 0 0.143 0.306 2.171 0.412 2.713 0.1 0.524 0.231 0.705 0.518 0.705 0.437 0 0.518-0.262 0.356-1.173-0.050-0.274-0.15-0.923-0.225-1.435-0.106-0.742-0.162-0.967-0.268-1.079-0.175-0.187-0.443-0.181-0.636 0.019z"></path>
</symbol>
<symbol id="icon-placeholder" viewBox="0 0 32 32">
<path d="M14.719 0.094c-1.912 0.237-3.756 1.019-5.231 2.206-0.238 0.188-0.431 0.388-0.431 0.444-0.019 0.219 0.019 0.356 0.131 0.469 0.194 0.2 0.456 0.15 0.825-0.144 1.119-0.887 2.406-1.525 3.731-1.844 3.288-0.8 6.775 0.212 9.069 2.625 1.563 1.644 2.438 3.613 2.631 5.9 0.244 2.887-1.094 6.869-3.806 11.344-1.125 1.85-2.875 4.35-4.313 6.163-0.45 0.575-0.794 0.769-1.325 0.769s-0.875-0.194-1.325-0.769c-1.438-1.813-3.188-4.313-4.313-6.163-2.737-4.519-4.069-8.506-3.8-11.425 0.15-1.694 0.638-3.1 1.556-4.506 0.175-0.269 0.319-0.525 0.319-0.563-0.006-0.2-0.1-0.362-0.256-0.45-0.319-0.163-0.469-0.063-0.881 0.563-1.619 2.456-2.075 5.263-1.388 8.475 0.644 3.006 2.544 6.931 5.3 10.969l0.6 0.875-1.887 0.031c-1.688 0.025-1.919 0.044-2.112 0.15-0.481 0.256-0.581 0.413-1.631 2.681-0.969 2.094-1.019 2.212-1.013 2.575 0.006 0.462 0.131 0.769 0.456 1.094 0.463 0.463-0.050 0.438 8.794 0.438h7.9l0.15-0.156c0.2-0.194 0.2-0.431 0-0.625l-0.15-0.156h-3.538l2.519-2.519 2.525-2.512 0.119 0.156c0.119 0.15 1.55 3.181 1.869 3.95 0.125 0.313 0.137 0.375 0.063 0.55-0.125 0.3-0.337 0.375-1.075 0.375-0.688 0.006-0.813 0.050-0.913 0.319-0.069 0.175 0.006 0.413 0.163 0.531s1.337 0.113 1.756-0.012c0.375-0.106 0.756-0.45 0.919-0.819 0.056-0.131 0.106-0.406 0.106-0.613 0.006-0.363-0.044-0.481-0.981-2.512-0.544-1.175-1.075-2.238-1.175-2.363-0.106-0.119-0.306-0.288-0.444-0.363-0.25-0.131-0.35-0.137-2.156-0.169l-1.887-0.031 0.6-0.875c2.819-4.125 4.7-8.044 5.331-11.125 0.381-1.863 0.375-3.588-0.025-5.156-0.738-2.938-2.775-5.438-5.563-6.831-0.55-0.275-1.781-0.694-2.406-0.819-1.125-0.225-2.306-0.269-3.406-0.131zM13.281 26.981c0.412 0.538 0.762 1 0.769 1.031 0.012 0.025-1.525 0.050-3.419 0.050-1.919 0-3.444-0.025-3.444-0.056 0-0.125 0.756-1.681 0.894-1.837l0.156-0.169h4.294l0.75 0.981zM21.438 27.031l-1.031 1.031h-1.238c-0.681 0-1.231-0.025-1.219-0.050 0.012-0.031 0.356-0.494 0.769-1.031l0.75-0.981h3l-1.031 1.031zM18.438 30.031l-1.031 1.031h-5.425c-5.944 0-5.694 0.012-5.85-0.369-0.094-0.219-0.075-0.288 0.294-1.087l0.281-0.606h12.762l-1.031 1.031z"></path>
<path d="M15.469 3.256c-2.406 0.206-4.387 1.906-5.037 4.306-0.2 0.738-0.2 2.113-0.006 2.813l0.131 0.469-0.219 0.175c-0.35 0.294-0.475 0.613-0.512 1.3-0.037 0.825 0.075 1.206 0.463 1.55 0.181 0.156 0.375 0.269 0.519 0.287 0.125 0.019 0.269 0.063 0.319 0.088 0.056 0.031 0.4 1.213 0.956 3.325 0.537 2.038 0.938 3.431 1.056 3.681 0.363 0.762 1.206 1.456 2.056 1.694 0.356 0.094 1.256 0.094 1.612 0 0.85-0.238 1.694-0.931 2.056-1.694 0.119-0.256 0.512-1.637 1.056-3.681 0.563-2.131 0.894-3.294 0.956-3.325 0.050-0.025 0.194-0.069 0.319-0.088 0.144-0.019 0.337-0.131 0.519-0.287 0.387-0.344 0.5-0.725 0.462-1.55-0.038-0.688-0.163-1.006-0.512-1.3l-0.219-0.181 0.131-0.494c0.194-0.731 0.194-2.037 0-2.781-0.738-2.769-3.262-4.544-6.106-4.306zM17.156 4.319c2.656 0.638 4.269 3.487 3.431 6.069l-0.1 0.3h-2.819c-1.556 0.006-2.95 0.031-3.1 0.056-0.519 0.1-0.806 0.431-0.875 1-0.050 0.431-0.162 0.581-0.419 0.581-0.238 0-0.4-0.213-0.4-0.525 0-0.294-0.188-0.675-0.412-0.856-0.181-0.144-0.256-0.169-0.662-0.225-0.281-0.037-0.294-0.050-0.387-0.331-0.694-2.138 0.325-4.606 2.331-5.656 1.056-0.556 2.225-0.7 3.413-0.412zM11.938 11.887c0 0.544 0.35 1.081 0.844 1.306l0.25 0.113-1.019-0.012c-0.994-0.012-1.025-0.019-1.144-0.162-0.094-0.119-0.119-0.244-0.119-0.656 0-0.725 0.056-0.787 0.694-0.787h0.494v0.2zM21.15 11.825c0.156 0.219 0.137 1.113-0.019 1.306l-0.119 0.15-7.481 0.025 0.25-0.125c0.519-0.256 0.844-0.762 0.844-1.319v-0.175h6.431l0.094 0.137zM19.813 14.275c0 0.063-1.625 6.156-1.694 6.35-0.35 1.006-1.444 1.631-2.506 1.438-0.813-0.15-1.475-0.7-1.731-1.438-0.069-0.194-1.694-6.287-1.694-6.35 0-0.012 1.719-0.025 3.813-0.025 2.1 0 3.813 0.012 3.813 0.025z"></path>
</symbol>
    <symbol id="icon-birdie" viewBox="0 0 26 32">
      <path stroke-linejoin="round" stroke-linecap="round" stroke-width="6.4" d="M5.172 3.2 19.341 16 5.172 28.8"/>
    </symbol>
    <symbol id="icon-vector" viewBox="0 0 32 32">
      <path d="M32 3.223 28.777 0 16 12.777 3.223 0 0 3.223 12.777 16 0 28.777 3.223 32 16 19.223 28.777 32 32 28.777 19.223 16 32 3.223z"/>
    </symbol>
  </defs>
</svg>