<svg aria-hidden="true" style="position: absolute; width: 0; height: 0; overflow: hidden;" version="1.1" xmlns="http://www.w3.org/2000/svg" xmlns:xlink="http://www.w3.org/1999/xlink">
<defs>
<symbol id="icon-cup" viewBox="0 0 32 32">
<path d="M8.3 0.175c-0.094 0.119-0.331 0.794-0.706 2l-0.556 1.825h-0.463c-0.563 0-0.838 0.112-0.975 0.406-0.144 0.306-0.144 2.944 0 3.25 0.125 0.263 0.419 0.406 0.831 0.406 0.294 0 0.319 0.012 0.319 0.15 0 0.181 0.169 2.244 0.219 2.669 0.031 0.275 0.025 0.294-0.15 0.369-0.388 0.156-0.438 0.356-0.356 1.5 0.056 0.856 0.125 1.162 0.287 1.25 0.188 0.1 0.469 0.075 0.588-0.056 0.125-0.137 0.131-0.294 0.069-1.2l-0.044-0.619h17.2v0.2c-0.006 0.113-0.238 3.063-0.519 6.55l-0.512 6.344-0.844 0.031c-0.913 0.038-1.1 0.094-1.163 0.356-0.106 0.413 0.181 0.631 0.837 0.637 0.313 0.006 0.325 0.012 0.325 0.188 0 0.094-0.081 1.156-0.188 2.35-0.1 1.194-0.188 2.2-0.188 2.225 0 0.031-2.825 0.056-6.344 0.056s-6.344-0.025-6.344-0.056c0-0.025-0.081-1.031-0.188-2.225-0.1-1.194-0.188-2.256-0.188-2.35v-0.181l10.869-0.031 0.137-0.137c0.181-0.181 0.181-0.481 0-0.663l-0.137-0.137-11.706-0.063-0.394-4.844c-0.213-2.663-0.419-4.906-0.45-4.975-0.075-0.169-0.369-0.275-0.55-0.206-0.075 0.025-0.181 0.119-0.231 0.2-0.088 0.131-0.063 0.575 0.306 5.187 0.225 2.769 0.431 5.1 0.463 5.181 0.081 0.206 0.281 0.369 0.519 0.419l0.206 0.044 0.231 2.744c0.231 2.75 0.231 2.75 0.394 2.887l0.162 0.144h13.8l0.163-0.144c0.163-0.137 0.163-0.137 0.394-2.887l0.231-2.744 0.206-0.044c0.238-0.050 0.438-0.212 0.519-0.419 0.056-0.144 1.119-13.044 1.131-13.738 0.006-0.438-0.106-0.656-0.394-0.775-0.175-0.075-0.181-0.094-0.15-0.369 0.050-0.425 0.219-2.488 0.219-2.669 0-0.137 0.025-0.15 0.319-0.15 0.413 0 0.706-0.144 0.831-0.406 0.144-0.306 0.144-2.944 0-3.25-0.137-0.294-0.413-0.406-0.975-0.406h-0.462l-0.556-1.825c-0.375-1.206-0.613-1.881-0.706-2l-0.15-0.175h-15.037l-0.15 0.175zM23.444 2.45l0.469 1.519-1.087 0.031c-1.050 0.031-1.087 0.037-1.206 0.181-0.163 0.2-0.15 0.419 0.038 0.6l0.15 0.156h3.694v2.188h-19.063v-2.188h13.694l0.15-0.156c0.188-0.181 0.2-0.4 0.038-0.6l-0.119-0.15-12.175-0.063 0.469-1.519 0.469-1.512h14.012l0.469 1.512zM24.25 8.2c0 0.181-0.181 2.306-0.225 2.656l-0.031 0.269h-16.050l-0.031-0.269c-0.044-0.35-0.225-2.475-0.225-2.656v-0.137h16.563v0.137z"></path>
<path d="M8.731 13.506c-0.287 0.169-0.256 0.656 0.056 0.8 0.113 0.050 2.094 0.069 7.181 0.069s7.069-0.019 7.181-0.069c0.319-0.144 0.344-0.644 0.044-0.8-0.169-0.094-14.306-0.094-14.463 0z"></path>
<path d="M8.95 15.356c-0.131 0.050-0.269 0.381-0.225 0.55 0.088 0.363-0.313 0.344 7.244 0.344s7.156 0.019 7.244-0.344c0.044-0.181-0.094-0.494-0.244-0.556-0.125-0.044-13.9-0.044-14.019 0.006z"></path>
<path d="M9.181 17.256c-0.3 0.113-0.369 0.494-0.131 0.756 0.088 0.106 0.5 0.113 6.919 0.113s6.831-0.006 6.919-0.113c0.244-0.275 0.169-0.644-0.156-0.762-0.244-0.081-13.319-0.081-13.55 0.006z"></path>
<path d="M9.194 19.288c-0.169 0.219-0.162 0.356 0.019 0.569l0.15 0.175h13.213l0.15-0.175c0.181-0.212 0.188-0.35 0.019-0.569l-0.125-0.163h-13.3l-0.125 0.163z"></path>
<path d="M9.481 21.069c-0.287 0.169-0.256 0.656 0.056 0.8 0.219 0.1 12.644 0.1 12.862 0 0.319-0.144 0.344-0.644 0.044-0.8-0.169-0.094-12.806-0.094-12.963 0z"></path>
<path d="M9.713 22.95c-0.137 0.063-0.275 0.294-0.275 0.462 0 0.050 0.069 0.163 0.156 0.244l0.15 0.156h12.45l0.15-0.156c0.087-0.081 0.156-0.194 0.156-0.244 0-0.175-0.137-0.4-0.294-0.469-0.206-0.094-12.3-0.087-12.494 0.006z"></path>
</symbol>
<symbol id="icon-ice-cream-van" viewBox="0 0 32 32">
<path d="M15.719 0.512c-0.488 0.531-0.681 0.881-0.781 1.413-0.081 0.456-0.012 0.944 0.194 1.369 0.106 0.225 0.119 0.3 0.063 0.469-0.106 0.3-0.081 0.862 0.050 1.15 0.069 0.144 0.219 0.375 0.35 0.513 0.213 0.244 0.225 0.269 0.162 0.494-0.175 0.619-0.025 1.031 0.619 1.725l0.494 0.525-0.619 0.606 0.563 0.575v2.15h-8.050l-0.175 0.45c-0.506 1.338-0.731 1.9-1.631 3.963l-0.975 2.25-5.294 2.106v5.231h-0.688v2.813l1.881 0.012 1.887 0.019 0.1 0.375c0.325 1.163 1.275 2.269 2.406 2.813 0.925 0.431 2.069 0.544 3.056 0.288 1.512-0.394 2.794-1.637 3.206-3.119l0.106-0.387h7.025l0.106 0.387c0.394 1.413 1.637 2.669 3.050 3.081 1.731 0.5 3.619-0.075 4.75-1.45 0.369-0.444 0.731-1.119 0.869-1.613l0.1-0.375 1.731-0.019 1.725-0.012v-2.813h-0.688v-14h-6.406l1.019-1.019c0.556-0.556 1.012-1.056 1.012-1.106s-0.525-1.106-1.156-2.344l-1.15-2.25 0.119-0.256c0.15-0.306 0.163-0.869 0.031-1.188-0.050-0.119-0.4-0.538-0.775-0.919l-0.688-0.7-0.669 0.656-0.462-0.475c-0.256-0.262-0.581-0.531-0.719-0.594-0.281-0.131-0.9-0.156-1.1-0.050-0.106 0.056-0.169 0.025-0.369-0.156-0.406-0.369-0.725-0.5-1.188-0.5-0.425 0-0.675 0.094-1.019 0.375-0.288 0.244-0.406 0.2-0.981-0.381-0.294-0.294-0.563-0.531-0.6-0.531-0.044 0-0.262 0.206-0.494 0.45zM17.094 2c0.369 0.119 0.731 0.044 1.219-0.25 0.344-0.206 0.475-0.256 0.606-0.219 0.212 0.050 0.519 0.269 0.519 0.363 0 0.044-0.45 0.525-1 1.075l-1 1 0.325 0.325 0.325 0.331 1.256-1.25c1.194-1.188 1.269-1.25 1.494-1.25 0.212 0 0.294 0.050 0.7 0.45l0.462 0.456-4.438 4.438-0.438-0.438c-0.244-0.237-0.456-0.487-0.475-0.55-0.056-0.181 0.025-0.4 0.231-0.638l0.194-0.219-0.506-0.531c-0.462-0.481-0.506-0.55-0.506-0.781 0-0.2 0.044-0.3 0.225-0.494l0.219-0.25-0.281-0.344c-0.269-0.331-0.412-0.663-0.412-0.95 0-0.188 0.169-0.656 0.287-0.781 0.094-0.106 0.119-0.094 0.431 0.163 0.181 0.144 0.438 0.3 0.563 0.344zM23.65 3.375c0.238 0.25 0.288 0.35 0.288 0.544 0 0.225-0.094 0.331-2.644 2.875-3.019 3.025-2.806 2.875-3.356 2.356-0.175-0.162-0.313-0.325-0.313-0.363 0-0.069 5.625-5.725 5.694-5.725 0.019 0 0.169 0.138 0.331 0.313zM24.319 6.231l0.337 0.644-3.238 3.238-0.712-0.35-0.706-0.356 1.95-1.95c1.075-1.075 1.969-1.931 1.994-1.906 0.019 0.025 0.188 0.331 0.375 0.681zM25.506 8.55l0.337 0.637-2.113 2.113-0.712-0.35-0.706-0.356 1.387-1.387c0.762-0.762 1.406-1.369 1.431-1.344 0.019 0.025 0.188 0.331 0.375 0.688zM20.694 10.813l1.337 0.688h-4.281v-0.631c0-0.631 0-0.631 0.144-0.588 0.344 0.106 0.825 0.1 1.075-0.025 0.137-0.069 0.281-0.125 0.319-0.125 0.044-0.006 0.675 0.3 1.406 0.681zM30.375 12.906v0.469h-10.663c-8.506 0-10.656-0.019-10.631-0.081 0.012-0.037 0.088-0.25 0.169-0.469l0.144-0.387h20.981v0.469zM14.375 16.188v1.875h-3.662c-2.906 0-3.656-0.019-3.631-0.081 0.081-0.2 1.556-3.575 1.581-3.619 0.019-0.025 1.313-0.050 2.875-0.050h2.838v1.875zM16.825 18.137l0.019 3.831 12.031 0.031v-7.688h1.5v11.188h-2.181l-0.225-0.375c-0.988-1.631-2.906-2.475-4.75-2.094-1.3 0.269-2.375 1.044-3.019 2.169l-0.169 0.3h-7.75l-0.169-0.3c-0.95-1.663-2.938-2.563-4.806-2.169-1.231 0.262-2.406 1.1-2.994 2.137l-0.188 0.331h-2.5v-2.169l0.487-0.038c0.263-0.019 0.606-0.081 0.763-0.137 0.594-0.206 1.188-0.8 1.412-1.406 0.069-0.188 0.112-0.569 0.131-1.125l0.031-0.844 0.981-0.394 0.975-0.387h8.906v-4.688h1.5l0.012 3.825zM27.938 14.906v0.531h-10.188v-1.063h10.188v0.531zM27.938 18.719v2.344h-10.188v-4.688h10.188v2.344zM3.487 20.762c-0.050 1.050-0.481 1.531-1.438 1.6l-0.425 0.031v-1.5l0.894-0.35c0.487-0.188 0.913-0.35 0.944-0.35 0.025-0.006 0.038 0.256 0.025 0.569zM9.012 23.962c1.775 0.425 2.981 2.156 2.738 3.931-0.344 2.475-2.963 3.85-5.2 2.725-0.438-0.219-1.063-0.794-1.344-1.231-0.513-0.8-0.7-1.837-0.494-2.725 0.3-1.269 1.294-2.306 2.569-2.669 0.456-0.131 1.244-0.144 1.731-0.031zM24.962 23.975c1.294 0.331 2.331 1.394 2.637 2.688 0.137 0.594 0.087 1.413-0.119 1.975-0.55 1.45-1.856 2.375-3.363 2.375-1.806 0.006-3.306-1.313-3.556-3.119-0.238-1.769 0.95-3.494 2.712-3.925 0.456-0.113 1.238-0.113 1.688 0.006zM3.725 26.906l-0.056 0.469h-2.731v-0.938h2.85l-0.063 0.469zM19.663 26.731c-0.025 0.169-0.056 0.375-0.075 0.469l-0.038 0.175h-6.787l-0.037-0.175c-0.019-0.094-0.050-0.3-0.075-0.469l-0.037-0.294h7.088l-0.038 0.294zM31.063 26.906v0.469h-2.419l-0.056-0.469-0.063-0.469h2.538v0.469z"></path>
<path d="M9.563 15.781l-0.719 0.719 0.331 0.325 0.325 0.331 1.469-1.469-0.313-0.313c-0.169-0.169-0.325-0.313-0.344-0.313s-0.356 0.325-0.75 0.719z"></path>
<path d="M12.106 15.8l-0.731 0.731 0.656 0.656 1.469-1.469-0.656-0.656-0.738 0.738z"></path>
<path d="M14.125 20.344v0.469h1.25v-0.938h-1.25v0.469z"></path>
<path d="M8.188 21.512v0.469l0.488 0.044c0.831 0.069 1.588 0.306 2.281 0.725 0.225 0.137 0.438 0.25 0.463 0.25 0.056-0.006 0.438-0.512 0.494-0.65 0.019-0.056-0.106-0.175-0.369-0.337-0.8-0.506-1.863-0.856-2.838-0.931l-0.519-0.038v0.469z"></path>
<path d="M12.425 23.256c-0.169 0.137-0.3 0.281-0.3 0.319s0.144 0.25 0.325 0.481c0.181 0.225 0.331 0.425 0.338 0.438 0.025 0.031 0.775-0.444 0.775-0.5 0-0.069-0.744-0.994-0.8-0.994-0.025 0-0.175 0.113-0.338 0.256z"></path>
<path d="M16.813 24.219v0.469h2.438v-0.938h-2.438v0.469z"></path>
<path d="M2.513 24.325l0.019 0.456 1.031 0.038v-0.944h-1.069l0.019 0.45z"></path>
<path d="M24.688 17.781v0.469h1.375v1.375h0.938v-2.313h-2.313v0.469z"></path>
<path d="M18.731 17.794c-0.025 0.019-0.044 0.556-0.044 1.188v1.144h3.063v-0.938h-2.125v-1.438h-0.425c-0.238 0-0.45 0.019-0.469 0.044z"></path>
<path d="M7.463 25.238c-1.319 0.469-1.956 1.988-1.344 3.225 0.706 1.438 2.594 1.756 3.719 0.625 1.438-1.438 0.481-3.863-1.556-3.944-0.362-0.012-0.588 0.012-0.819 0.094zM8.738 26.163c0.512 0.212 0.844 0.719 0.844 1.275 0 0.419-0.119 0.719-0.4 0.994-0.406 0.406-1.019 0.512-1.556 0.275-0.769-0.337-1.044-1.262-0.588-2 0.338-0.55 1.106-0.794 1.7-0.544z"></path>
<path d="M23.469 25.212c-0.644 0.206-1.181 0.663-1.456 1.231-0.806 1.663 0.625 3.587 2.456 3.3 1.681-0.269 2.512-2.188 1.55-3.606-0.55-0.806-1.656-1.206-2.55-0.925zM24.756 26.238c0.788 0.413 0.988 1.462 0.406 2.125-0.369 0.425-1.087 0.594-1.6 0.375-1.106-0.469-1.1-2.1 0-2.575 0.356-0.156 0.813-0.125 1.194 0.075z"></path>
</symbol>
<symbol id="icon-icecream" viewBox="0 0 32 32">
<path d="M15.531 0.037c-0.069 0.013-0.281 0.056-0.469 0.094-0.5 0.1-1.287 0.5-1.719 0.875-0.588 0.512-0.963 1.056-1.25 1.819l-0.113 0.3h-0.331c-0.519 0-0.944 0.112-1.588 0.419-1.4 0.669-2.313 2.119-2.313 3.675 0 0.981 0.4 2.031 1.037 2.713l0.344 0.375-1.063 0.019c-1.013 0.019-1.075 0.025-1.206 0.162-0.144 0.137-0.144 0.15-0.162 2.25-0.013 1.412 0 2.181 0.050 2.338 0.106 0.369 0.281 0.425 1.275 0.425 0.825 0 0.85 0.006 0.881 0.137 0.019 0.081 0.819 3.731 1.775 8.112 1.644 7.506 1.756 7.975 1.912 8.106l0.162 0.144h6.488l0.163-0.144c0.156-0.131 0.269-0.6 1.913-8.106 0.956-4.381 1.756-8.031 1.775-8.113 0.031-0.131 0.056-0.137 0.881-0.137 0.994 0 1.169-0.056 1.275-0.425 0.050-0.156 0.063-0.925 0.050-2.338-0.019-2.1-0.019-2.112-0.163-2.25-0.131-0.137-0.194-0.144-1.206-0.162l-1.063-0.019 0.344-0.375c0.413-0.444 0.819-1.231 0.944-1.838 0.294-1.394-0.106-2.731-1.119-3.756-0.425-0.425-0.6-0.556-1.1-0.794-0.644-0.306-1.069-0.419-1.594-0.419h-0.337l-0.125-0.344c-0.194-0.519-0.369-0.837-0.644-1.188-0.531-0.669-1.381-1.231-2.169-1.438-0.4-0.1-1.306-0.175-1.537-0.119zM16.9 1.188c1.35 0.462 2.169 1.569 2.169 2.944 0 0.569-0.144 1.138-0.394 1.544-0.069 0.119-0.106 0.231-0.075 0.256 0.188 0.156 0.706 0.506 0.762 0.506 0.2 0 0.669-1.206 0.738-1.894 0.050-0.481 0.044-0.481 0.7-0.325 1.413 0.331 2.387 1.538 2.4 2.969 0.012 0.856-0.288 1.6-0.881 2.188-0.425 0.425-0.825 0.662-1.369 0.819-0.394 0.113-0.681 0.119-4.95 0.119s-4.556-0.006-4.95-0.119c-1.963-0.563-2.856-2.794-1.825-4.55 0.606-1.031 1.938-1.663 3.106-1.469 1.387 0.237 2.456 1.344 2.6 2.7l0.037 0.344 1.044 0.037-0.037-0.362c-0.137-1.188-0.619-2.112-1.469-2.825-0.35-0.288-1.2-0.756-1.375-0.756-0.106 0-0.081-0.125 0.113-0.531 0.35-0.744 1.144-1.406 1.938-1.631 0.456-0.125 1.3-0.106 1.719 0.038zM24.25 12.906v1.531h-16.5v-3.063h16.5v1.531zM14.5 16.781c-0.706 0.706-1.306 1.281-1.344 1.281s-0.637-0.575-1.344-1.281l-1.281-1.281h5.25l-1.281 1.281zM20.188 16.781c-0.706 0.706-1.306 1.281-1.344 1.281s-0.525-0.462-1.094-1.031l-1.025-1.031 0.488-0.5h4.256l-1.281 1.281zM11.738 19.544c-0.387 0.387-0.719 0.706-0.738 0.706s-0.2-0.769-0.4-1.706c-0.206-0.931-0.381-1.756-0.4-1.825-0.012-0.069 0.481 0.381 1.106 1l1.131 1.125-0.7 0.7zM21.425 18.444c-0.212 0.975-0.394 1.788-0.406 1.806-0.012 0.012-0.344-0.294-0.738-0.688l-0.719-0.719 1.106-1.106c0.606-0.613 1.113-1.1 1.125-1.087 0.012 0.006-0.156 0.819-0.369 1.794zM17.044 17.762c0.563 0.563 1.019 1.044 1.019 1.081s-0.462 0.525-1.031 1.094l-1.031 1.031-1.031-1.031c-0.569-0.569-1.031-1.056-1.031-1.094 0-0.063 2-2.094 2.063-2.094 0.019 0 0.488 0.456 1.044 1.012zM13.656 23.313c-1.306 1.306-1.631 1.606-1.669 1.519-0.025-0.063-0.2-0.844-0.394-1.731l-0.35-1.625 1.912-1.913 2.125 2.125-1.625 1.625zM20.712 21.688c-0.031 0.175-0.219 0.4-0.969 1.156l-0.931 0.938-1.044-1.050-1.050-1.044 2.125-2.125 0.95 0.95c0.938 0.938 0.956 0.962 0.919 1.175zM17.063 23.469l1.031 1.031-2.094 2.094-2.094-2.094 1.031-1.031c0.569-0.569 1.044-1.031 1.063-1.031s0.494 0.462 1.063 1.031zM20.181 24.106c-0.231 1.063-1.181 5.412-1.181 5.444 0 0.025-0.506-0.462-1.125-1.081l-1.125-1.125 1.731-1.731c0.956-0.956 1.744-1.738 1.744-1.738 0.006 0-0.012 0.106-0.044 0.231zM14.144 28.45c-0.625 0.625-1.125 1.081-1.137 1.038s-0.188-0.813-0.387-1.706l-0.356-1.625 0.444-0.456 0.45-0.45 2.094 2.094-1.106 1.106zM17.356 29.45c0.731 0.731 1.331 1.363 1.331 1.406 0 0.063-0.569 0.081-2.688 0.081-2.1 0-2.688-0.019-2.688-0.075 0-0.075 2.619-2.738 2.688-2.738 0.019 0 0.625 0.6 1.356 1.325z"></path>
</symbol>
<symbol id="icon-milkshake" viewBox="0 0 32 32">
<path d="M22.487 0.293c-1.566 0.2-2.158 0.299-2.264 0.381-0.094 0.069-0.399 0.661-0.83 1.609l-0.686 1.497-0.43 0.006c-0.318 0.006-0.518 0.050-0.798 0.175-0.362 0.162-0.381 0.162-0.661 0.069-0.162-0.056-0.343-0.1-0.405-0.1-0.087 0-0.125-0.087-0.187-0.43-0.125-0.705-0.536-1.248-1.191-1.553-0.287-0.137-0.43-0.168-0.873-0.162-0.449 0-0.586 0.025-0.886 0.168-0.312 0.156-0.923 0.717-0.923 0.848 0 0.025-0.231 0.044-0.511 0.044-0.605 0-1.048 0.168-1.472 0.555-0.249 0.225-0.636 0.886-0.636 1.092 0 0.056-0.1 0.15-0.218 0.206-0.293 0.143-0.692 0.511-0.855 0.798-0.094 0.168-0.187 0.25-0.324 0.281-0.605 0.131-1.241 0.699-1.472 1.322-0.181 0.468-0.15 1.148 0.069 1.603 0.2 0.424 0.636 0.848 1.054 1.023l0.349 0.143 0.143 1.441c0.661 6.681 1.865 12.045 3.425 15.283l0.468 0.979-0.131 0.143c-0.337 0.356-0.418 0.992-0.193 1.46 0.075 0.15 0.125 0.287 0.112 0.293-0.012 0.012-0.511 0.225-1.104 0.468-1.266 0.518-1.354 0.574-1.516 0.886-0.15 0.293-0.15 0.574-0.012 0.811 0.225 0.38 0.069 0.374 5.003 0.356 4.448-0.019 4.491-0.019 4.666-0.15 0.237-0.175 0.343-0.505 0.256-0.811-0.106-0.387-0.374-0.593-1.266-0.954-0.443-0.187-0.954-0.399-1.135-0.474l-0.324-0.143 0.125-0.237c0.081-0.162 0.119-0.368 0.119-0.649 0-0.349-0.025-0.455-0.187-0.705-0.1-0.162-0.187-0.337-0.187-0.381 0-0.050 0.125-0.324 0.274-0.611 0.449-0.855 0.867-1.903 0.823-2.071-0.056-0.231-0.212-0.349-0.443-0.349-0.268 0-0.412 0.15-0.586 0.611-0.075 0.193-0.343 0.786-0.586 1.304l-0.449 0.954h-1.198c-0.917 0-1.204-0.019-1.204-0.075 0-0.044-0.225-0.549-0.499-1.123-1.291-2.682-2.364-7.099-3.019-12.401-0.087-0.705-0.175-1.354-0.193-1.453l-0.031-0.168h4.959c3.924 0 4.959 0.019 4.959 0.075 0 0.181-0.318 2.539-0.499 3.699-0.337 2.183-0.667 3.849-1.104 5.552-0.381 1.485-0.381 1.485-0.181 1.678 0.231 0.237 0.574 0.193 0.717-0.081 0.119-0.212 0.692-2.576 0.973-3.992 0.499-2.52 0.892-5.215 1.154-7.928 0.119-1.191 0.143-1.354 0.256-1.435 0.773-0.568 1.060-1.073 1.060-1.871 0.006-0.736-0.337-1.347-0.992-1.772-0.343-0.218-0.374-0.262-0.399-0.505-0.044-0.362-0.262-0.798-0.561-1.11l-0.243-0.262 1.223-2.682 1.747-0.225c0.961-0.125 1.909-0.243 2.115-0.268 0.418-0.056 0.661-0.237 0.661-0.505 0-0.237-0.262-0.468-0.512-0.462-0.112 0.006-1.16 0.131-2.327 0.287zM14.628 2.801c0.524 0.237 0.792 0.78 0.661 1.335-0.094 0.418-0.087 0.468 0.081 0.636 0.143 0.143 0.187 0.15 0.611 0.119 0.412-0.031 0.487-0.019 0.755 0.125 0.356 0.193 0.536 0.206 0.736 0.044 0.237-0.181 0.555-0.324 0.674-0.306 0.1 0.019-0.031 0.337-0.836 2.108l-0.948 2.090-7.716 0.031-0.318-0.156c-0.724-0.356-0.873-1.223-0.318-1.828 0.181-0.206 0.306-0.262 0.705-0.324 0.418-0.069 0.48-0.119 0.68-0.543 0.175-0.362 0.424-0.586 0.786-0.699 0.299-0.1 0.38-0.206 0.468-0.643 0.044-0.206 0.143-0.468 0.231-0.58 0.306-0.393 0.88-0.53 1.441-0.324 0.393 0.137 0.561 0.050 0.774-0.418 0.312-0.692 0.911-0.954 1.534-0.667zM19.337 5.315c0.094 0.15 0.125 0.318 0.125 0.611 0 0.505 0.094 0.649 0.462 0.742 0.331 0.081 0.705 0.387 0.823 0.674 0.218 0.511 0.031 1.135-0.424 1.435l-0.256 0.175-1.335 0.019c-0.73 0.012-1.329 0.006-1.329-0.012 0-0.031 1.584-3.537 1.69-3.736 0.081-0.143 0.1-0.137 0.243 0.094zM15.906 9.943c0 0.012-0.125 0.293-0.281 0.624l-0.274 0.599h-2.963c-1.628 0-2.975-0.019-2.988-0.050-0.019-0.025-0.050-0.306-0.069-0.624l-0.050-0.574h3.312c1.821 0 3.312 0.012 3.312 0.025zM19.624 10.087c-0.019 0.1-0.050 0.38-0.069 0.624l-0.044 0.455h-1.553c-0.855 0-1.553-0.012-1.553-0.025 0-0.019 0.125-0.299 0.274-0.624l0.281-0.599h2.701l-0.037 0.168zM15.956 28.332c0.112 0.112 0.094 0.468-0.025 0.512-0.056 0.019-0.736 0.037-1.516 0.037-1.497 0-1.566-0.012-1.566-0.287 0-0.318 0.087-0.337 1.616-0.337 1.017 0 1.435 0.019 1.491 0.075zM15.881 29.948c0.2 0.225 0.549 0.418 1.347 0.742 0.418 0.175 0.773 0.331 0.792 0.343 0.012 0.019-1.597 0.031-3.587 0.031l-3.612-0.006 0.593-0.243c1.011-0.424 1.204-0.524 1.485-0.767l0.268-0.231h1.297c1.241 0 1.304 0.006 1.416 0.131z"></path>
<path d="M11.191 13.854c-0.106 0.119-0.119 0.218-0.1 0.823 0.012 0.38 0.050 0.742 0.081 0.805 0.15 0.274 0.655 0.262 0.805-0.019 0.081-0.137 0.075-1.004 0-1.335-0.031-0.137-0.106-0.281-0.162-0.324-0.175-0.125-0.487-0.1-0.624 0.050z"></path>
<path d="M14.122 13.854c-0.112 0.125-0.119 0.274-0.119 3.406v3.275l0.15 0.119c0.2 0.162 0.455 0.15 0.618-0.025l0.137-0.143v-3.256c0-3.175-0.006-3.262-0.125-3.381-0.168-0.168-0.505-0.162-0.661 0.006z"></path>
<path d="M17.035 13.885c-0.1 0.131-0.131 0.256-0.131 0.58 0 1.067-0.243 3.15-0.661 5.726-0.031 0.225-0.019 0.281 0.119 0.418 0.206 0.206 0.474 0.212 0.649 0.019 0.243-0.256 0.711-3.587 0.805-5.689 0.037-0.898 0.031-0.942-0.094-1.079-0.193-0.2-0.518-0.187-0.686 0.025z"></path>
<path d="M11.446 17.123c-0.087 0.081-0.156 0.193-0.156 0.25 0 0.143 0.306 2.171 0.412 2.713 0.1 0.524 0.231 0.705 0.518 0.705 0.437 0 0.518-0.262 0.356-1.173-0.050-0.274-0.15-0.923-0.225-1.435-0.106-0.742-0.162-0.967-0.268-1.079-0.175-0.187-0.443-0.181-0.636 0.019z"></path>
</symbol>
<symbol id="icon-placeholder" viewBox="0 0 32 32">
<path d="M14.719 0.094c-1.912 0.237-3.756 1.019-5.231 2.206-0.238 0.188-0.431 0.388-0.431 0.444-0.019 0.219 0.019 0.356 0.131 0.469 0.194 0.2 0.456 0.15 0.825-0.144 1.119-0.887 2.406-1.525 3.731-1.844 3.288-0.8 6.775 0.212 9.069 2.625 1.563 1.644 2.438 3.613 2.631 5.9 0.244 2.887-1.094 6.869-3.806 11.344-1.125 1.85-2.875 4.35-4.313 6.163-0.45 0.575-0.794 0.769-1.325 0.769s-0.875-0.194-1.325-0.769c-1.438-1.813-3.188-4.313-4.313-6.163-2.737-4.519-4.069-8.506-3.8-11.425 0.15-1.694 0.638-3.1 1.556-4.506 0.175-0.269 0.319-0.525 0.319-0.563-0.006-0.2-0.1-0.362-0.256-0.45-0.319-0.163-0.469-0.063-0.881 0.563-1.619 2.456-2.075 5.263-1.388 8.475 0.644 3.006 2.544 6.931 5.3 10.969l0.6 0.875-1.887 0.031c-1.688 0.025-1.919 0.044-2.112 0.15-0.481 0.256-0.581 0.413-1.631 2.681-0.969 2.094-1.019 2.212-1.013 2.575 0.006 0.462 0.131 0.769 0.456 1.094 0.463 0.463-0.050 0.438 8.794 0.438h7.9l0.15-0.156c0.2-0.194 0.2-0.431 0-0.625l-0.15-0.156h-3.538l2.519-2.519 2.525-2.512 0.119 0.156c0.119 0.15 1.55 3.181 1.869 3.95 0.125 0.313 0.137 0.375 0.063 0.55-0.125 0.3-0.337 0.375-1.075 0.375-0.688 0.006-0.813 0.050-0.913 0.319-0.069 0.175 0.006 0.413 0.163 0.531s1.337 0.113 1.756-0.012c0.375-0.106 0.756-0.45 0.919-0.819 0.056-0.131 0.106-0.406 0.106-0.613 0.006-0.363-0.044-0.481-0.981-2.512-0.544-1.175-1.075-2.238-1.175-2.363-0.106-0.119-0.306-0.288-0.444-0.363-0.25-0.131-0.35-0.137-2.156-0.169l-1.887-0.031 0.6-0.875c2.819-4.125 4.7-8.044 5.331-11.125 0.381-1.863 0.375-3.588-0.025-5.156-0.738-2.938-2.775-5.438-5.563-6.831-0.55-0.275-1.781-0.694-2.406-0.819-1.125-0.225-2.306-0.269-3.406-0.131zM13.281 26.981c0.412 0.538 0.762 1 0.769 1.031 0.012 0.025-1.525 0.050-3.419 0.050-1.919 0-3.444-0.025-3.444-0.056 0-0.125 0.756-1.681 0.894-1.837l0.156-0.169h4.294l0.75 0.981zM21.438 27.031l-1.031 1.031h-1.238c-0.681 0-1.231-0.025-1.219-0.050 0.012-0.031 0.356-0.494 0.769-1.031l0.75-0.981h3l-1.031 1.031zM18.438 30.031l-1.031 1.031h-5.425c-5.944 0-5.694 0.012-5.85-0.369-0.094-0.219-0.075-0.288 0.294-1.087l0.281-0.606h12.762l-1.031 1.031z"></path>
<path d="M15.469 3.256c-2.406 0.206-4.387 1.906-5.037 4.306-0.2 0.738-0.2 2.113-0.006 2.813l0.131 0.469-0.219 0.175c-0.35 0.294-0.475 0.613-0.512 1.3-0.037 0.825 0.075 1.206 0.463 1.55 0.181 0.156 0.375 0.269 0.519 0.287 0.125 0.019 0.269 0.063 0.319 0.088 0.056 0.031 0.4 1.213 0.956 3.325 0.537 2.038 0.938 3.431 1.056 3.681 0.363 0.762 1.206 1.456 2.056 1.694 0.356 0.094 1.256 0.094 1.612 0 0.85-0.238 1.694-0.931 2.056-1.694 0.119-0.256 0.512-1.637 1.056-3.681 0.563-2.131 0.894-3.294 0.956-3.325 0.050-0.025 0.194-0.069 0.319-0.088 0.144-0.019 0.337-0.131 0.519-0.287 0.387-0.344 0.5-0.725 0.462-1.55-0.038-0.688-0.163-1.006-0.512-1.3l-0.219-0.181 0.131-0.494c0.194-0.731 0.194-2.037 0-2.781-0.738-2.769-3.262-4.544-6.106-4.306zM17.156 4.319c2.656 0.638 4.269 3.487 3.431 6.069l-0.1 0.3h-2.819c-1.556 0.006-2.95 0.031-3.1 0.056-0.519 0.1-0.806 0.431-0.875 1-0.050 0.431-0.162 0.581-0.419 0.581-0.238 0-0.4-0.213-0.4-0.525 0-0.294-0.188-0.675-0.412-0.856-0.181-0.144-0.256-0.169-0.662-0.225-0.281-0.037-0.294-0.050-0.387-0.331-0.694-2.138 0.325-4.606 2.331-5.656 1.056-0.556 2.225-0.7 3.413-0.412zM11.938 11.887c0 0.544 0.35 1.081 0.844 1.306l0.25 0.113-1.019-0.012c-0.994-0.012-1.025-0.019-1.144-0.162-0.094-0.119-0.119-0.244-0.119-0.656 0-0.725 0.056-0.787 0.694-0.787h0.494v0.2zM21.15 11.825c0.156 0.219 0.137 1.113-0.019 1.306l-0.119 0.15-7.481 0.025 0.25-0.125c0.519-0.256 0.844-0.762 0.844-1.319v-0.175h6.431l0.094 0.137zM19.813 14.275c0 0.063-1.625 6.156-1.694 6.35-0.35 1.006-1.444 1.631-2.506 1.438-0.813-0.15-1.475-0.7-1.731-1.438-0.069-0.194-1.694-6.287-1.694-6.35 0-0.012 1.719-0.025 3.813-0.025 2.1 0 3.813 0.012 3.813 0.025z"></path>
</symbol>
</defs>
</svg>
