<?xml version="1.0" standalone="no"?>
<!DOCTYPE svg PUBLIC "-//W3C//DTD SVG 20010904//EN"
 "http://www.w3.org/TR/2001/REC-SVG-20010904/DTD/svg10.dtd">
<svg version="1.0" xmlns="http://www.w3.org/2000/svg"
 width="512.000000pt" height="512.000000pt" viewBox="0 0 512.000000 512.000000"
 preserveAspectRatio="xMidYMid meet">

<g transform="translate(0.000000,512.000000) scale(0.100000,-0.100000)"
fill="#000000" stroke="none">
<path d="M1328 5092 c-15 -19 -53 -127 -113 -320 l-89 -292 -74 0 c-90 0 -134
-18 -156 -65 -23 -49 -23 -471 0 -520 20 -42 67 -65 133 -65 47 0 51 -2 51
-24 0 -29 27 -359 35 -427 5 -44 4 -47 -24 -59 -62 -25 -70 -57 -57 -240 9
-137 20 -186 46 -200 30 -16 75 -12 94 9 20 22 21 47 11 192 l-7 99 1376 0
1376 0 0 -32 c-1 -18 -38 -490 -83 -1048 l-82 -1015 -135 -5 c-146 -6 -176
-15 -186 -57 -17 -66 29 -101 134 -102 50 -1 52 -2 52 -30 0 -15 -13 -185 -30
-376 -16 -191 -30 -352 -30 -356 0 -5 -452 -9 -1015 -9 -563 0 -1015 4 -1015
9 0 4 -13 165 -30 356 -16 191 -30 361 -30 376 l0 29 870 2 869 3 22 22 c29
29 29 77 0 106 l-22 22 -936 5 -937 5 -63 775 c-34 426 -67 785 -72 796 -12
27 -59 44 -88 33 -12 -4 -29 -19 -37 -32 -14 -21 -10 -92 49 -830 36 -443 69
-816 74 -829 13 -33 45 -59 83 -67 l33 -7 37 -439 c37 -440 37 -440 63 -462
l26 -23 1104 0 1104 0 26 23 c26 22 26 22 63 462 l37 439 33 7 c38 8 70 34 83
67 9 23 179 2087 181 2198 1 70 -17 105 -63 124 -28 12 -29 15 -24 59 8 68 35
398 35 427 0 22 4 24 51 24 66 0 113 23 133 65 23 49 23 471 0 520 -22 47 -66
65 -156 65 l-74 0 -89 292 c-60 193 -98 301 -113 320 l-24 28 -1203 0 -1203 0
-24 -28z m2423 -364 l75 -243 -174 -5 c-168 -5 -174 -6 -193 -29 -26 -32 -24
-67 6 -96 l24 -25 296 0 295 0 0 -175 0 -175 -1525 0 -1525 0 0 175 0 175
1095 0 1096 0 24 25 c30 29 32 64 6 96 l-19 24 -974 5 -974 5 75 243 75 242
1121 0 1121 0 75 -242z m129 -920 c0 -29 -29 -369 -36 -425 l-5 -43 -1284 0
-1284 0 -5 43 c-7 56 -36 396 -36 425 l0 22 1325 0 1325 0 0 -22z"/>
<path d="M1397 2959 c-46 -27 -41 -105 9 -128 18 -8 335 -11 1149 -11 814 0
1131 3 1149 11 51 23 55 103 7 128 -27 15 -2289 15 -2314 0z"/>
<path d="M1432 2663 c-21 -8 -43 -61 -36 -88 14 -58 -50 -55 1159 -55 1209 0
1145 -3 1159 55 7 29 -15 79 -39 89 -20 7 -2224 7 -2243 -1z"/>
<path d="M1469 2359 c-48 -18 -59 -79 -21 -121 14 -17 80 -18 1107 -18 1027 0
1093 1 1107 18 39 44 27 103 -25 122 -39 13 -2131 13 -2168 -1z"/>
<path d="M1471 2034 c-27 -35 -26 -57 3 -91 l24 -28 1057 0 1057 0 24 28 c29
34 30 56 3 91 l-20 26 -1064 0 -1064 0 -20 -26z"/>
<path d="M1517 1749 c-46 -27 -41 -105 9 -128 35 -16 2023 -16 2058 0 51 23
55 103 7 128 -27 15 -2049 15 -2074 0z"/>
<path d="M1554 1448 c-22 -10 -44 -47 -44 -74 0 -8 11 -26 25 -39 l24 -25 996
0 996 0 24 25 c14 13 25 31 25 39 0 28 -22 64 -47 75 -33 15 -1968 14 -1999
-1z"/>
</g>
</svg>
