<?xml version="1.0" standalone="no"?>
<!DOCTYPE svg PUBLIC "-//W3C//DTD SVG 20010904//EN"
 "http://www.w3.org/TR/2001/REC-SVG-20010904/DTD/svg10.dtd">
<svg version="1.0" xmlns="http://www.w3.org/2000/svg"
 width="512.000000pt" height="512.000000pt" viewBox="0 0 512.000000 512.000000"
 preserveAspectRatio="xMidYMid meet">

<g transform="translate(0.000000,512.000000) scale(0.100000,-0.100000)"
fill="#000000" stroke="none">
<path d="M2515 5038 c-78 -85 -109 -141 -125 -226 -13 -73 -2 -151 31 -219 17
-36 19 -48 10 -75 -17 -48 -13 -138 8 -184 11 -23 35 -60 56 -82 34 -39 36
-43 26 -79 -28 -99 -4 -165 99 -276 l79 -84 -50 -49 -49 -48 45 -46 45 -46 0
-172 0 -172 -644 0 -644 0 -28 -72 c-81 -214 -117 -304 -261 -634 l-156 -360
-424 -169 -423 -168 0 -419 0 -418 -55 0 -55 0 0 -225 0 -225 301 -2 302 -3
16 -60 c52 -186 204 -363 385 -450 148 -69 331 -87 489 -46 242 63 447 262
513 499 l17 62 562 0 562 0 17 -62 c63 -226 262 -427 488 -493 277 -80 579 12
760 232 59 71 117 179 139 258 l16 60 277 3 276 2 0 225 0 225 -55 0 -55 0 0
1120 0 1120 -512 0 -513 0 163 163 c89 89 162 169 162 177 0 8 -84 177 -185
375 l-184 360 19 41 c24 49 26 139 5 190 -8 19 -64 86 -124 147 l-110 112 -53
-52 -54 -53 -74 76 c-41 42 -93 85 -115 95 -45 21 -144 25 -176 8 -17 -9 -27
-4 -59 25 -65 59 -116 80 -190 80 -68 0 -108 -15 -163 -60 -46 -39 -65 -32
-157 61 -47 47 -90 85 -96 85 -7 0 -42 -33 -79 -72z m220 -238 c59 -19 117 -7
195 40 55 33 76 41 97 35 34 -8 83 -43 83 -58 0 -7 -72 -84 -160 -172 l-160
-160 52 -52 52 -53 201 200 c191 190 203 200 239 200 34 0 47 -8 112 -72 l74
-73 -355 -355 -355 -355 -70 70 c-39 38 -73 78 -76 88 -9 29 4 64 37 102 l31
35 -81 85 c-74 77 -81 88 -81 125 0 32 7 48 36 79 l35 40 -45 55 c-43 53 -66
106 -66 152 0 30 27 105 46 125 15 17 19 15 69 -26 29 -23 70 -48 90 -55z
m1049 -220 c38 -40 46 -56 46 -87 0 -36 -15 -53 -423 -460 -483 -484 -449
-460 -537 -377 -28 26 -50 52 -50 58 0 11 900 916 911 916 3 0 27 -22 53 -50z
m107 -457 l54 -103 -259 -259 -259 -259 -114 56 -113 57 312 312 c172 172 315
309 319 305 3 -4 30 -53 60 -109z m190 -371 l54 -102 -169 -169 -169 -169
-114 56 -113 57 222 222 c122 122 225 219 229 215 3 -4 30 -53 60 -110z m-770
-362 l214 -110 -342 0 -343 0 0 101 c0 101 0 101 23 94 55 -17 132 -16 172 4
22 11 45 20 51 20 7 1 108 -48 225 -109z m1549 -335 l0 -75 -1706 0 c-1361 0
-1705 3 -1701 13 2 6 14 40 27 75 l23 62 1678 0 1679 0 0 -75z m-2560 -525 l0
-300 -586 0 c-465 0 -585 3 -581 13 13 32 249 572 253 579 3 4 210 8 460 8
l454 0 0 -300z m392 -312 l3 -613 963 -3 962 -2 0 615 0 615 120 0 120 0 0
-895 0 -895 -174 0 -175 0 -36 60 c-158 261 -465 396 -760 335 -208 -43 -380
-167 -483 -347 l-27 -48 -620 0 -620 0 -27 48 c-152 266 -470 410 -769 347
-197 -42 -385 -176 -479 -342 l-30 -53 -200 0 -200 0 0 174 0 173 78 6 c42 3
97 13 122 22 95 33 190 128 226 225 11 30 18 91 21 180 l5 135 157 63 156 62
713 0 712 0 0 375 0 375 120 0 120 0 2 -612z m1778 517 l0 -85 -815 0 -815 0
0 85 0 85 815 0 815 0 0 -85z m0 -610 l0 -375 -815 0 -815 0 0 375 0 375 815
0 815 0 0 -375z m-3912 -327 c-8 -168 -77 -245 -230 -256 l-68 -5 0 120 0 120
143 56 c78 30 146 56 151 56 4 1 6 -41 4 -91z m884 -512 c284 -68 477 -345
438 -629 -55 -396 -474 -616 -832 -436 -70 35 -170 127 -215 197 -82 128 -112
294 -79 436 48 203 207 369 411 427 73 21 199 23 277 5z m2552 -2 c207 -53
373 -223 422 -430 22 -95 14 -226 -19 -316 -88 -232 -297 -380 -538 -380 -289
-1 -529 210 -569 499 -38 283 152 559 434 628 73 18 198 18 270 -1z m-3398
-469 l-9 -75 -219 0 -218 0 0 75 0 75 228 0 228 0 -10 -75z m2550 28 c-4 -27
-9 -60 -12 -75 l-6 -28 -543 0 -543 0 -6 28 c-3 15 -8 48 -12 75 l-6 47 567 0
567 0 -6 -47z m1824 -28 l0 -75 -193 0 -194 0 -9 75 -10 75 203 0 203 0 0 -75z"/>
<path d="M1530 2595 l-115 -115 53 -52 52 -53 117 117 118 118 -50 50 c-27 27
-52 50 -55 50 -3 0 -57 -52 -120 -115z"/>
<path d="M1937 2592 l-117 -117 53 -53 52 -52 118 118 117 117 -53 53 -52 52
-118 -118z"/>
<path d="M2260 1865 l0 -75 100 0 100 0 0 75 0 75 -100 0 -100 0 0 -75z"/>
<path d="M1310 1678 l0 -75 78 -7 c133 -11 254 -49 365 -116 36 -22 70 -40 74
-40 9 1 70 82 79 104 3 9 -17 28 -59 54 -128 81 -298 137 -454 149 l-83 6 0
-75z"/>
<path d="M1988 1399 c-27 -22 -48 -45 -48 -51 0 -6 23 -40 52 -77 29 -36 53
-68 54 -70 4 -5 124 71 124 80 0 11 -119 159 -128 159 -4 0 -28 -18 -54 -41z"/>
<path d="M2690 1245 l0 -75 195 0 195 0 0 75 0 75 -195 0 -195 0 0 -75z"/>
<path d="M402 1228 l3 -73 83 -3 82 -3 0 76 0 75 -85 0 -86 0 3 -72z"/>
<path d="M3950 2275 l0 -75 110 0 110 0 0 -110 0 -110 75 0 75 0 0 185 0 185
-185 0 -185 0 0 -75z"/>
<path d="M2997 2273 c-4 -3 -7 -89 -7 -190 l0 -183 245 0 245 0 0 75 0 75
-170 0 -170 0 0 115 0 115 -68 0 c-38 0 -72 -3 -75 -7z"/>
<path d="M1194 1082 c-211 -75 -313 -318 -215 -516 113 -230 415 -281 595
-100 230 230 77 618 -249 631 -58 2 -94 -2 -131 -15z m204 -148 c82 -34 135
-115 135 -204 0 -67 -19 -115 -64 -159 -65 -65 -163 -82 -249 -44 -123 54
-167 202 -94 320 54 88 177 127 272 87z"/>
<path d="M3755 1086 c-103 -33 -189 -106 -233 -197 -129 -266 100 -574 393
-528 269 43 402 350 248 577 -88 129 -265 193 -408 148z m206 -164 c126 -66
158 -234 65 -340 -59 -68 -174 -95 -256 -60 -177 75 -176 336 0 412 57 25 130
20 191 -12z"/>
</g>
</svg>
