<?xml version="1.0" standalone="no"?>
<!DOCTYPE svg PUBLIC "-//W3C//DTD SVG 20010904//EN"
 "http://www.w3.org/TR/2001/REC-SVG-20010904/DTD/svg10.dtd">
<svg version="1.0" xmlns="http://www.w3.org/2000/svg"
 width="512.000000pt" height="512.000000pt" viewBox="0 0 512.000000 512.000000"
 preserveAspectRatio="xMidYMid meet">

<g transform="translate(0.000000,512.000000) scale(0.100000,-0.100000)"
fill="#000000" stroke="none">
<path d="M2485 5114 c-11 -2 -45 -9 -75 -15 -80 -16 -206 -80 -275 -140 -94
-82 -154 -169 -200 -291 l-18 -48 -53 0 c-83 0 -151 -18 -254 -67 -224 -107
-370 -339 -370 -588 0 -157 64 -325 166 -434 l55 -60 -170 -3 c-162 -3 -172
-4 -193 -26 -23 -22 -23 -24 -26 -360 -2 -226 0 -349 8 -374 17 -59 45 -68
204 -68 132 0 136 -1 141 -22 3 -13 131 -597 284 -1298 263 -1201 281 -1276
306 -1297 l26 -23 519 0 519 0 26 23 c25 21 43 96 306 1297 153 701 281 1285
284 1298 5 21 9 22 141 22 159 0 187 9 204 68 8 25 10 148 8 374 -3 336 -3
338 -26 360 -21 22 -31 23 -193 26 l-170 3 55 60 c66 71 131 197 151 294 47
223 -17 437 -179 601 -68 68 -96 89 -176 127 -103 49 -171 67 -255 67 l-54 0
-20 55 c-31 83 -59 134 -103 190 -85 107 -221 197 -347 230 -64 16 -209 28
-246 19z m219 -184 c216 -74 347 -251 347 -471 0 -91 -23 -182 -63 -247 -11
-19 -17 -37 -12 -41 30 -25 113 -81 122 -81 32 0 107 193 118 303 8 77 7 77
112 52 226 -53 382 -246 384 -475 2 -137 -46 -256 -141 -350 -68 -68 -132
-106 -219 -131 -63 -18 -109 -19 -792 -19 -683 0 -729 1 -792 19 -314 90 -457
447 -292 728 97 165 310 266 497 235 222 -38 393 -215 416 -432 l6 -55 84 -3
83 -3 -6 58 c-22 190 -99 338 -235 452 -56 46 -192 121 -220 121 -17 0 -13 20
18 85 56 119 183 225 310 261 73 20 208 17 275 -6z m1176 -1875 l0 -245 -1320
0 -1320 0 0 245 0 245 1320 0 1320 0 0 -245z m-1560 -620 c-113 -113 -209
-205 -215 -205 -6 0 -102 92 -215 205 l-205 205 420 0 420 0 -205 -205z m910
0 c-113 -113 -209 -205 -215 -205 -6 0 -84 74 -175 165 l-164 165 39 40 39 40
340 0 341 0 -205 -205z m-1352 -442 c-62 -62 -115 -113 -118 -113 -3 0 -32
123 -64 273 -33 149 -61 281 -64 292 -2 11 77 -61 177 -160 l181 -180 -112
-112z m1550 176 c-34 -156 -63 -286 -65 -289 -2 -2 -55 47 -118 110 l-115 115
177 177 c97 98 178 176 180 174 2 -1 -25 -131 -59 -287z m-701 109 c90 -90
163 -167 163 -173 0 -6 -74 -84 -165 -175 l-165 -165 -165 165 c-91 91 -165
169 -165 175 0 10 320 335 330 335 3 0 78 -73 167 -162z m-542 -888 c-209
-209 -261 -257 -267 -243 -4 10 -32 135 -63 277 l-56 260 153 153 153 153 170
-170 170 -170 -260 -260z m1129 260 c-5 -28 -35 -64 -155 -185 l-149 -150
-167 168 -168 167 170 170 170 170 152 -152 c150 -150 153 -154 147 -188z
m-584 -285 l165 -165 -168 -168 -167 -167 -167 167 -168 168 165 165 c91 91
167 165 170 165 3 0 79 -74 170 -165z m499 -102 c-37 -170 -189 -866 -189
-871 0 -4 -81 74 -180 173 l-180 180 277 277 c153 153 279 278 279 278 1 0 -2
-17 -7 -37z m-966 -695 c-100 -100 -180 -173 -182 -166 -2 7 -30 130 -62 273
l-57 260 71 73 72 72 167 -167 168 -168 -177 -177z m514 -160 c117 -117 213
-218 213 -225 0 -10 -91 -13 -430 -13 -336 0 -430 3 -430 12 0 12 419 438 430
438 3 0 100 -96 217 -212z"/>
</g>
</svg>
