<?xml version="1.0" standalone="no"?>
<!DOCTYPE svg PUBLIC "-//W3C//DTD SVG 20010904//EN"
 "http://www.w3.org/TR/2001/REC-SVG-20010904/DTD/svg10.dtd">
<svg version="1.0" xmlns="http://www.w3.org/2000/svg"
 width="512.000000pt" height="513.000000pt" viewBox="0 0 512.000000 513.000000"
 preserveAspectRatio="xMidYMid meet">

<g transform="translate(0.000000,513.000000) scale(0.100000,-0.100000)"
fill="#000000" stroke="none">
<path d="M3605 5083 c-251 -32 -346 -48 -363 -61 -15 -11 -64 -106 -133 -258
l-110 -240 -69 -1 c-51 -1 -83 -8 -128 -28 -58 -26 -61 -26 -106 -11 -26 9
-55 16 -65 16 -14 0 -20 14 -30 69 -20 113 -86 200 -191 249 -46 22 -69 27
-140 26 -72 0 -94 -4 -142 -27 -50 -25 -148 -115 -148 -136 0 -4 -37 -7 -82
-7 -97 0 -168 -27 -236 -89 -40 -36 -102 -142 -102 -175 0 -9 -16 -24 -35 -33
-47 -23 -111 -82 -137 -128 -15 -27 -30 -40 -52 -45 -97 -21 -199 -112 -236
-212 -29 -75 -24 -184 11 -257 32 -68 102 -136 169 -164 l56 -23 23 -231 c106
-1071 299 -1931 549 -2450 l75 -157 -21 -23 c-54 -57 -67 -159 -31 -234 12
-24 20 -46 18 -47 -2 -2 -82 -36 -177 -75 -203 -83 -217 -92 -243 -142 -24
-47 -24 -92 -2 -130 36 -61 11 -60 802 -57 713 3 720 3 748 24 38 28 55 81 41
130 -17 62 -60 95 -203 153 -71 30 -153 64 -182 76 l-52 23 20 38 c13 26 19
59 19 104 0 56 -4 73 -30 113 -16 26 -30 54 -30 61 0 8 20 52 44 98 72 137
139 305 132 332 -9 37 -34 56 -71 56 -43 0 -66 -24 -94 -98 -12 -31 -55 -126
-94 -209 l-72 -153 -192 0 c-147 0 -193 3 -193 12 0 7 -36 88 -80 180 -207
430 -379 1138 -484 1988 -14 113 -28 217 -31 233 l-5 27 795 0 c629 0 795 -3
795 -12 0 -29 -51 -407 -80 -593 -54 -350 -107 -617 -177 -890 -61 -238 -61
-238 -29 -269 37 -38 92 -31 115 13 19 34 111 413 156 640 80 404 143 836 185
1271 19 191 23 217 41 230 124 91 170 172 170 300 1 118 -54 216 -159 284 -55
35 -60 42 -64 81 -7 58 -42 128 -90 178 l-39 42 98 215 98 215 280 36 c154 20
306 39 339 43 67 9 106 38 106 81 0 38 -42 75 -82 74 -18 -1 -186 -21 -373
-46z m-1260 -402 c84 -38 127 -125 106 -214 -15 -67 -14 -75 13 -102 23 -23
30 -24 98 -19 66 5 78 3 121 -20 57 -31 86 -33 118 -7 38 29 89 52 108 49 16
-3 -5 -54 -134 -338 l-152 -335 -619 -3 -618 -2 -51 25 c-116 57 -140 196 -51
293 29 33 49 42 113 52 67 11 77 19 109 87 28 58 68 94 126 112 48 16 61 33
75 103 7 33 23 75 37 93 49 63 141 85 231 52 63 -22 90 -8 124 67 50 111 146
153 246 107z m755 -403 c15 -24 20 -51 20 -98 0 -81 15 -104 74 -119 53 -13
113 -62 132 -108 35 -82 5 -182 -68 -230 l-41 -28 -214 -3 c-117 -2 -213 -1
-213 2 0 5 254 567 271 599 13 23 16 22 39 -15z m-550 -742 c0 -2 -20 -47 -45
-100 l-44 -96 -475 0 c-261 0 -477 3 -479 8 -3 4 -8 49 -11 100 l-8 92 531 0
c292 0 531 -2 531 -4z m596 -23 c-3 -16 -8 -61 -11 -100 l-7 -73 -249 0 c-137
0 -249 2 -249 4 0 3 20 48 44 100 l45 96 216 0 217 0 -6 -27z m-588 -2925 c18
-18 15 -75 -4 -82 -9 -3 -118 -6 -243 -6 -240 0 -251 2 -251 46 0 51 14 54
259 54 163 0 230 -3 239 -12z m-12 -259 c32 -36 88 -67 216 -119 67 -28 124
-53 127 -55 2 -3 -256 -5 -575 -5 l-579 1 95 39 c162 68 193 84 238 123 l43
37 208 0 c199 0 209 -1 227 -21z"/>
<path d="M1794 2909 c-17 -19 -19 -35 -16 -132 2 -61 8 -119 13 -129 24 -44
105 -42 129 3 13 22 12 161 0 214 -5 22 -17 45 -26 52 -28 20 -78 16 -100 -8z"/>
<path d="M2264 2909 c-18 -20 -19 -44 -19 -546 l0 -525 24 -19 c32 -26 73 -24
99 4 l22 23 0 522 c0 509 -1 523 -20 542 -27 27 -81 26 -106 -1z"/>
<path d="M2731 2904 c-16 -21 -21 -41 -21 -93 0 -171 -39 -505 -106 -918 -5
-36 -3 -45 19 -67 33 -33 76 -34 104 -3 39 41 114 575 129 912 6 144 5 151
-15 173 -31 32 -83 30 -110 -4z"/>
<path d="M1835 2385 c-14 -13 -25 -31 -25 -40 0 -23 49 -348 66 -435 16 -84
37 -113 83 -113 70 0 83 42 57 188 -8 44 -24 148 -36 230 -17 119 -26 155 -43
173 -28 30 -71 29 -102 -3z"/>
</g>
</svg>
