<?xml version="1.0" standalone="no"?>
<!DOCTYPE svg PUBLIC "-//W3C//DTD SVG 20010904//EN"
 "http://www.w3.org/TR/2001/REC-SVG-20010904/DTD/svg10.dtd">
<svg version="1.0" xmlns="http://www.w3.org/2000/svg"
 width="512.000000pt" height="512.000000pt" viewBox="0 0 512.000000 512.000000"
 preserveAspectRatio="xMidYMid meet">

<g transform="translate(0.000000,512.000000) scale(0.100000,-0.100000)"
fill="#000000" stroke="none">
<path d="M2355 5105 c-306 -38 -601 -163 -837 -353 -38 -30 -69 -62 -69 -71
-3 -35 3 -57 21 -75 31 -32 73 -24 132 23 179 142 385 244 597 295 526 128
1084 -34 1451 -420 250 -263 390 -578 421 -944 39 -462 -175 -1099 -609 -1815
-180 -296 -460 -696 -690 -986 -72 -92 -127 -123 -212 -123 -85 0 -140 31
-212 123 -230 290 -510 690 -690 986 -438 723 -651 1361 -608 1828 24 271 102
496 249 721 28 43 51 84 51 90 -1 32 -16 58 -41 72 -51 26 -75 10 -141 -90
-259 -393 -332 -842 -222 -1356 103 -481 407 -1109 848 -1755 l96 -140 -302
-5 c-270 -4 -307 -7 -338 -24 -77 -41 -93 -66 -261 -429 -155 -335 -163 -354
-162 -412 1 -74 21 -123 73 -175 74 -74 -8 -70 1407 -70 l1264 0 24 25 c32 31
32 69 0 100 l-24 25 -283 0 -283 0 403 403 404 402 19 -25 c19 -24 248 -509
299 -632 20 -50 22 -60 10 -88 -20 -48 -54 -60 -172 -60 -110 -1 -130 -8 -146
-51 -11 -28 1 -66 26 -85 25 -19 214 -18 281 2 60 17 121 72 147 131 9 21 17
65 17 98 1 58 -7 77 -157 402 -87 188 -172 358 -188 378 -17 19 -49 46 -71 58
-40 21 -56 22 -345 27 l-302 5 96 140 c451 660 752 1287 853 1780 61 298 60
574 -4 825 -118 470 -444 870 -890 1093 -88 44 -285 111 -385 131 -180 36
-369 43 -545 21z m-230 -4302 c66 -86 122 -160 123 -165 2 -4 -244 -8 -547 -8
-307 0 -551 4 -551 9 0 20 121 269 143 294 l25 27 343 0 344 0 120 -157z
m1305 -8 l-165 -165 -198 0 c-109 0 -197 4 -195 8 2 5 57 79 123 165 l120 157
240 0 240 0 -165 -165z m-480 -480 l-165 -165 -868 0 c-951 0 -911 -2 -936 59
-15 35 -12 46 47 174 l45 97 1021 0 1021 0 -165 -165z"/>
<path d="M2475 4599 c-385 -33 -702 -305 -806 -689 -32 -118 -32 -338 -1 -450
l21 -75 -35 -28 c-56 -47 -76 -98 -82 -208 -6 -132 12 -193 74 -248 29 -25 60
-43 83 -46 20 -3 43 -10 51 -14 9 -5 64 -194 153 -532 86 -326 150 -549 169
-589 58 -122 193 -233 329 -271 57 -15 201 -15 258 0 136 38 271 149 329 271
19 41 82 262 169 589 90 341 143 527 153 532 8 4 31 11 51 14 23 3 54 21 83
46 62 55 80 116 74 248 -6 110 -26 161 -82 208 l-35 29 21 79 c31 117 31 326
0 445 -118 443 -522 727 -977 689z m270 -170 c425 -102 683 -558 549 -971
l-16 -48 -451 0 c-249 -1 -472 -5 -496 -9 -83 -16 -129 -69 -140 -160 -8 -69
-26 -93 -67 -93 -38 0 -64 34 -64 84 0 47 -30 108 -66 137 -29 23 -41 27 -106
36 -45 6 -47 8 -62 53 -111 342 52 737 373 905 169 89 356 112 546 66z m-835
-1211 c0 -87 56 -173 135 -209 l40 -18 -163 2 c-159 2 -164 3 -183 26 -15 19
-19 39 -19 105 0 116 9 126 111 126 l79 0 0 -32z m1474 10 c25 -35 22 -178 -3
-209 l-19 -24 -599 -2 -598 -2 40 20 c83 41 135 122 135 211 l0 28 514 0 515
0 15 -22z m-214 -392 c0 -10 -260 -985 -271 -1016 -56 -161 -231 -261 -401
-230 -130 24 -236 112 -277 230 -11 31 -271 1006 -271 1016 0 2 275 4 610 4
336 0 610 -2 610 -4z"/>
</g>
</svg>
